<?xml version="1.0" encoding="utf-8"?>
<!-- Generator: Adobe Illustrator 23.1.1, SVG Export Plug-In . SVG Version: 6.00 Build 0)  -->
<svg version="1.1" id="Layer_1" xmlns="http://www.w3.org/2000/svg" xmlns:xlink="http://www.w3.org/1999/xlink" x="0px" y="0px"
	 viewBox="0 0 576 468" style="enable-background:new 0 0 576 468;" xml:space="preserve">
<style type="text/css">
	.st0{fill:#B9E3E1;}
	.st1{fill:#DBFBFA;}
	.st2{fill:#47443D;}
	.st3{fill:#FFFFFF;}
	.st4{fill:#A39F99;}
	.st5{fill:#FFBC50;}
	.st6{fill:#FFD487;}
	.st7{fill:#686259;}
</style>
<title>Harvest_Vectorized Logo</title>
<g id="glass">
	<path class="st0" d="M173.4,51.9c0,0-31.7,70.7-30.2,134.6l0,0l150.3,115.9h55.2V221c0,0-9.3-119.4-32.9-160.6L173.4,51.9"/>
	<path class="st1" d="M294.6,68.6c0,0,19.8,3.4,34.8,93.4h8.2l-21.5-95.6L294.6,68.6z"/>
	<path class="st1" d="M155.2,172.2c0,0,12-95.8,29.5-105.8l-14.8-6.1l-26.7,116.8L155.2,172.2z"/>
</g>
<g id="carriage_UL">
	<g>
		<path class="st2" d="M504.5,226.2c-8.3,4.2-13.3,13-12.5,22.3c-22.1-9.9-52.2-16.4-81.7-1.8l-7.4-11.1H358
			c-3.6-66.7-23.2-146.1-33-166.8l-17.4-8.4c10,21,32.6,101.6,37.4,184.7c0,0-0.5,24.8-15.3,44.2h-31.6c0,0-23.5-108.4-134.1-108.4
			c-49.9,0-87.4,22-109.2,46.8l20,20.6l200.7,88.4h67.2h25.4h120.3l37.2-65.8C525.6,270.9,520.6,234.5,504.5,226.2z"/>
		<path class="st2" d="M281.2,185.7c2,1.4,4.8,0.9,6.2-1.1l8.1-11.6l15.9,11.1l4.4-6.3l-15.9-11.1l8.1-11.6c1.4-2,0.9-4.8-1.1-6.2
			s-4.8-0.9-6.2,1.1l-20.5,29.4C278.7,181.5,279.2,184.3,281.2,185.7z"/>
		<path class="st2" d="M179.7,51.9l-17.6,6.3c0,0-15.9,31.6-27.6,119.5h13.8C159.9,89.8,179.7,51.9,179.7,51.9z"/>
		<path class="st2" d="M238.6,55.1L228,51.9c0,0-19.8,37.9-31.5,125.8l10.7,3.2C218.8,93,238.6,55.1,238.6,55.1z"/>
	</g>
</g>
<path class="st3" d="M537.2,226.6c0,0-17.6-4.2-32.5,6.3c6.9,24.6,20.9,38,20.9,38s15.7-14.3,15.4-34.9
	C540.9,232.5,539.6,229.1,537.2,226.6z"/>
<g id="red_body">
	<path class="st4" d="M385.1,152v-28.7c4-5.8,9.4-10.4,15.7-13.5c0.8-0.4,1.5-1.1,1.8-1.9c4.1-11.7,2.3-22.8,0.8-28.6
		c-0.5-1.8-2.4-2.9-4.2-2.4c-0.3,0.1-0.6,0.2-0.9,0.4c-18.1,11.4-35.3,34.4-35.3,34.4v21.8C367.6,142.3,375.6,149,385.1,152z"/>
	<path class="st5" d="M537.2,226.6c-7.2-7.8-25.3-27-40.6-40.5c-1.2-1-2.5-1.8-3.9-2.4C481.3,179,426.8,159,333,157.5
		c-3.6-0.1-7,1.6-9.3,4.4c-7.3,9.3-14,19-20.1,29.1c-2,3.4-2.2,7.6-0.4,11.1c4.1,8.1,12.2,23.6,20.3,35.8c2.3,3.4,6.1,5.3,10.2,5.1
		c15.7-0.9,55.5-2.8,63,0.4c9.5,3.9,17.8,23.9,17.8,23.9s31.2-20,62.8-12.9c4,0.9,7.7,1.8,11.1,2.7l0,0
		C502.3,221.4,537.2,226.5,537.2,226.6"/>
	<path class="st6" d="M481.9,221.1c-18.6-9.1-42.2-16.8-68.8-22.2c-34.9-7.2-71.9-9.9-101.6-7.6c-0.8,0.1-1.4,0.8-1.4,1.6l0,0
		c0.1,0.8,0.8,1.4,1.6,1.4c29.4-2.4,66.2,0.4,100.8,7.5c28.1,5.8,52.9,14.1,71.7,23.8c0,0,7.4,3.6,9.5,9.3c1.1,3,0.8,8.3,0.6,11.2
		c2.9-4.4,6.6-8.2,10.9-11.4c-2.4-1.8-5.7-3.9-9.2-5.9C492.1,226.5,481.9,221.1,481.9,221.1z"/>
	<path class="st4" d="M481.9,252.6c1,3.1-0.6,6.4-3.7,7.4c-0.7,0.2-1.5,0.3-2.3,0.3c-1.9-0.1-3.9-0.2-5.9-0.2
		c-48.8,0-89.7,36.9-94.8,85.4c-0.3,3-3,5.2-6,5.1h-0.3c-3.2-0.2-5.6-2.9-5.5-6.1c0-0.1,0-0.2,0-0.3c5.8-54.5,51.8-95.9,106.6-95.9
		c0,0,9.1,0.1,11.3,3.3C481.6,251.9,481.8,252.2,481.9,252.6z"/>
	<path class="st5" d="M43.7,242.2c3.4,3,8.6,2.6,11.6-0.8c0.1-0.2,0.3-0.3,0.4-0.5c43.7-58.8,126.8-71,185.5-27.3
		c28.7,21.3,47.5,53.3,52.3,88.7c0.4,2.7,2.8,4.5,5.5,4.2c0.3,0,0.5-0.1,0.8-0.2c1.8-0.5,3.4-1.5,4.7-2.9c2.8-2.9,4.3-6.9,4.2-11
		c-15.2-80.9-93.1-134.2-174.1-119c-36.8,6.9-69.7,27.5-92.1,57.5C39.9,234.5,40.4,239.3,43.7,242.2L43.7,242.2z"/>
	<path class="st5" d="M315.7,308.7h37.5c3.9,0,7.1,3.2,7.1,7.1l0,0c0,3.9-3.2,7.1-7.1,7.1h-37.5c-3.9,0-7.1-3.2-7.1-7.1l0,0
		C308.6,311.9,311.8,308.7,315.7,308.7z"/>
	<path class="st5" d="M134.6,22.8l3.8,14.3c64.2-9,118.1,1.7,118.1,1.7c11.8,8.4,14.5,28.6,14.5,28.6c17.1,1.9,39.9,4.9,57.4,9.1
		c0,0,10.2-16,14.1-24.8C349.3,36.5,269.3,2.8,134.6,22.8z"/>
	<path class="st2" d="M143.2,55.3l14.7,13.3c37.9-3.9,76-4.2,113.9-1l0,0c0,0-3.4-21.3-15.1-29.7c0,0-54.3-10.5-118.6-1.5"/>
	<path class="st6" d="M230.3,187.5c-1.6,6-6.4,10.7-12.4,12.3c18.8,8.8,35.3,21.8,48.2,38.1c1.7-4.8,5.6-10.9,14-8.9
		C266.8,211.7,249.8,197.5,230.3,187.5z"/>
</g>
<g id="wheels_base">
	<path class="st7" d="M552.4,355.9l-4.1-0.4c0-5-0.6-10.1-1.5-15l3.9-1.3c3.6-1.2,5.6-5,4.4-8.6l0,0l-1.2-3.8
		c-1.2-3.6-5-5.6-8.6-4.4l0,0l-3.9,1.3c-2.1-4.6-4.6-9-7.6-13.1l3.1-2.8c2.8-2.5,3-6.8,0.5-9.6l0,0l-2.6-2.9c-2.5-2.8-6.8-3-9.6-0.5
		l0,0l-3,2.8c-3.8-3.3-7.9-6.3-12.2-8.9l1.7-3.8c1.5-3.4,0-7.5-3.5-9l-3.6-1.6c-3.4-1.5-7.5,0-9,3.5l-1.7,3.8
		c-4.8-1.5-9.8-2.6-14.8-3.1v-4.1c0-3.8-3.1-6.8-6.8-6.8h-3.9c-3.8,0-6.8,3.1-6.8,6.8v4.1c-5,0.6-10,1.6-14.8,3.1l-1.7-3.8
		c-1.5-3.4-5.6-5-9-3.5l-3.6,1.6c-3.4,1.5-5,5.6-3.5,9l1.7,3.8c-4.3,2.6-8.4,5.5-12.2,8.9l-3.1-2.8c-2.8-2.5-7.1-2.3-9.6,0.5l0,0
		l-2.6,2.9c-2.5,2.8-2.3,7.1,0.5,9.6l0,0l3.1,2.8c-2.9,4.1-5.5,8.5-7.6,13.1l-4-1.3c-3.6-1.2-7.5,0.8-8.6,4.4l0,0l-1.2,3.8
		c-1.2,3.6,0.8,7.4,4.4,8.6l0,0l3.9,1.3c-1,4.9-1.5,10-1.5,15l-4.1,0.4c-3.8,0.4-6.5,3.8-6.1,7.5l0,0l0.4,3.9
		c0.4,3.8,3.7,6.5,7.5,6.1l0,0l4.1-0.4c1.1,4.9,2.6,9.7,4.7,14.4l-3.6,2.1c-3.3,1.9-4.4,6.1-2.5,9.3l2,3.4c1.9,3.3,6.1,4.4,9.3,2.5
		l0,0l3.6-2.1c3,4,6.4,7.8,10.1,11.2l-2.4,3.3c-2.2,3.1-1.5,7.3,1.5,9.6l3.2,2.3c3.1,2.2,7.3,1.5,9.5-1.5l2.4-3.4
		c4.4,2.5,9,4.5,13.8,6.1l-0.9,4c-0.8,3.7,1.6,7.3,5.3,8.1l0,0l3.9,0.8c3.7,0.8,7.3-1.6,8.1-5.2l0,0l0.9-4c2.5,0.2,5,0.4,7.5,0.4
		s5.1-0.1,7.5-0.4l0.9,4c0.8,3.7,4.4,6,8.1,5.3l0,0l3.9-0.8c3.7-0.8,6.1-4.4,5.3-8.1l0,0l-0.9-4c4.8-1.6,9.4-3.6,13.8-6.1l2.4,3.4
		c2.2,3.1,6.5,3.7,9.5,1.5l3.2-2.3c3.1-2.2,3.7-6.5,1.5-9.6l0,0l-2.4-3.3c3.7-3.4,7-7.2,10-11.2l3.6,2.1c3.3,1.9,7.5,0.8,9.3-2.5
		l0,0l2-3.4c1.9-3.3,0.8-7.4-2.5-9.3l-3.6-2.1c2-4.6,3.6-9.4,4.6-14.3l4.1,0.4c3.8,0.4,7.1-2.3,7.5-6.1l0,0l0.4-3.9
		C558.9,359.7,556.2,356.3,552.4,355.9z"/>
	<path class="st2" d="M398.9,323.7l-3.9-1.3c-3.6-1.2-7.5,0.8-8.6,4.4l0,0l-1.2,3.8c-1.2,3.6,0.8,7.4,4.4,8.6l0,0l3.9,1.3
		c-1,4.9-1.5,10-1.5,15l-4.1,0.4c-3.8,0.4-6.5,3.8-6.1,7.5l0,0l0.4,3.9c0.4,3.8,3.7,6.5,7.5,6.1l0,0l4.1-0.4
		c1.1,4.9,2.6,9.7,4.7,14.4l-3.6,2.1c-3.3,1.9-4.4,6.1-2.5,9.3l2,3.4c1.9,3.3,6.1,4.4,9.3,2.5l0,0l3.6-2.1c3,4,6.4,7.8,10.1,11.2
		l-2.4,3.3c-2.2,3.1-1.5,7.3,1.5,9.6l3.2,2.3c3.1,2.2,7.3,1.5,9.5-1.5l2.4-3.4c4.4,2.5,9,4.5,13.8,6.1l-0.9,4
		c-0.8,3.7,1.6,7.3,5.3,8.1l0,0l3.9,0.8c3.7,0.8,7.3-1.6,8.1-5.2l0,0l0.9-4c2.5,0.2,5,0.4,7.5,0.4s5.1-0.1,7.5-0.4l0.9,4
		c0.8,3.7,4.4,6,8.1,5.3l0,0l3.9-0.8c3.7-0.8,6.1-4.4,5.3-8.1l0,0l-0.9-4c4.8-1.6,9.4-3.6,13.8-6.1l2.4,3.4c2.2,3.1,6.5,3.7,9.5,1.5
		l3.2-2.3c3.1-2.2,3.7-6.5,1.5-9.6l0,0l-2.4-3.3c3.7-3.4,7-7.2,10-11.2l3.6,2.1c3.3,1.9,7.5,0.8,9.3-2.5l0,0l2-3.4
		c0.6-1,0.9-2.1,0.9-3.3l-143.6-82.9C402.8,316.1,400.7,319.8,398.9,323.7z"/>
	<path class="st7" d="M277.5,320.7l-5.8-0.6c0-7.1-0.8-14.1-2.2-21l5.5-1.8c5-1.6,7.8-7.1,6.1-12.1l-1.7-5.2
		c-1.6-5-7.1-7.8-12.1-6.2l-5.5,1.8c-2.9-6.4-6.5-12.6-10.6-18.3l4.3-3.9c3.9-3.5,4.3-9.6,0.7-13.5l-3.7-4.1
		c-3.5-3.9-9.6-4.3-13.5-0.7l0,0l-4.3,3.9c-5.3-4.7-11-8.9-17.1-12.4l2.4-5.3c2.1-4.8,0-10.5-4.9-12.7l-5.1-2.2
		c-4.8-2.2-10.5,0-12.7,4.8l0,0l-2.4,5.3c-6.7-2.1-13.7-3.6-20.7-4.4v-5.8c0-5.3-4.3-9.6-9.6-9.6h-5.5c-5.3,0-9.6,4.3-9.6,9.6v5.8
		c-7,0.8-14,2.3-20.7,4.4l-2.3-5.3c-2.1-4.8-7.8-7-12.6-4.9l0,0l-5,2.2c-4.8,2.2-7,7.8-4.9,12.7l2.4,5.3
		c-6.1,3.6-11.8,7.8-17.1,12.4L85,235c-3.9-3.5-10-3.2-13.5,0.7l0,0l-3.7,4.1c-3.5,3.9-3.2,10,0.7,13.5l4.3,3.9
		c-4.1,5.7-7.7,11.9-10.6,18.3l-5.5-1.8c-5-1.6-10.4,1.1-12.1,6.2l-1.7,5.2c-1.6,5,1.1,10.4,6.1,12.1l0,0l5.5,1.8
		c-1.4,6.9-2.1,14-2.2,21.1l-5.8,0.6c-5.3,0.6-9.1,5.3-8.5,10.5l0.6,5.5c0.6,5.3,5.3,9.1,10.5,8.5l0,0l5.8-0.6
		c1.5,6.9,3.7,13.7,6.5,20.1l-5,2.9c-4.6,2.7-6.1,8.5-3.5,13.1l2.8,4.8c2.6,4.6,8.5,6.2,13.1,3.5l5-2.9c4.2,5.7,8.9,10.9,14.1,15.7
		l-3.4,4.7c-3.1,4.3-2.2,10.3,2.1,13.4l0,0l4.5,3.2c4.3,3.1,10.3,2.2,13.4-2.1l3.4-4.7c6.2,3.5,12.6,6.3,19.3,8.6l-1.2,5.7
		c-1.1,5.2,2.2,10.3,7.4,11.4l5.4,1.1c5.2,1.1,10.3-2.2,11.4-7.4l0,0l1.2-5.7c3.5,0.3,7,0.5,10.6,0.5s7.1-0.2,10.6-0.5l1.2,5.7
		c1.1,5.2,6.2,8.5,11.3,7.4l0,0l5.4-1.1c5.2-1.1,8.5-6.2,7.4-11.4l-1.2-5.7c6.7-2.2,13.2-5.1,19.3-8.6l3.4,4.7
		c3.1,4.3,9.1,5.2,13.4,2.1l4.5-3.2c4.3-3.1,5.2-9.1,2.1-13.4l0,0l-3.4-4.7c5.2-4.8,10-10,14.2-15.7l5,2.9
		c4.6,2.7,10.4,1.1,13.1-3.5l0,0l2.8-4.8c2.6-4.6,1.1-10.4-3.5-13.1l-5-2.9c2.8-6.5,5-13.2,6.5-20.1l5.8,0.6
		c5.3,0.5,10-3.3,10.5-8.5l0.6-5.5C286.6,326,282.8,321.3,277.5,320.7L277.5,320.7z"/>
	<path class="st2" d="M70.4,260.8c-3.1,4.7-5.8,9.6-8.2,14.8l-5.5-1.8c-5-1.6-10.4,1.1-12.1,6.2l-1.7,5.2c-1.6,5,1.1,10.4,6.1,12.1
		l0,0l5.5,1.8c-1.4,6.9-2.1,13.9-2.2,21l-5.8,0.6c-5.3,0.6-9.1,5.3-8.5,10.5l0.6,5.5c0.6,5.3,5.3,9.1,10.5,8.5l0,0l5.8-0.6
		c1.5,6.9,3.7,13.7,6.5,20.1l-5,2.9c-4.6,2.6-6.2,8.5-3.5,13.1l0,0l2.8,4.8c2.6,4.6,8.5,6.2,13.1,3.5l5-2.9
		c4.2,5.7,8.9,10.9,14.1,15.7l-3.4,4.7c-3.1,4.3-2.2,10.3,2.1,13.4l0,0l4.5,3.2c4.3,3.1,10.3,2.2,13.4-2.1l3.4-4.7
		c6.2,3.5,12.6,6.3,19.3,8.6l-1.2,5.7c-1.1,5.2,2.2,10.3,7.4,11.4l5.4,1.1c5.2,1.1,10.3-2.2,11.4-7.4l0,0l1.2-5.7
		c3.5,0.3,7,0.5,10.6,0.5s7.1-0.2,10.6-0.5l1.2,5.7c1.1,5.2,6.2,8.5,11.3,7.4l0,0l5.4-1.1c5.2-1.1,8.5-6.2,7.4-11.4l-1.2-5.7
		c6.7-2.2,13.2-5.1,19.3-8.6l3.4,4.7c3.1,4.3,9.1,5.2,13.4,2.1l4.5-3.2c4.3-3.1,5.2-9.1,2.1-13.4l0,0l-3.4-4.7
		c5.2-4.8,10-10,14.2-15.7l5,2.9c4.6,2.7,10.4,1.1,13.1-3.5l0,0l2.8-4.8c0.6-1,1-2.2,1.2-3.4L70.4,260.8z"/>
</g>
<g id="wheel_inner">
	<circle class="st2" cx="162.1" cy="320" r="71.8"/>
	<path class="st7" d="M102.8,279.5c-22.3,32.8-13.9,77.4,18.9,99.8c32.8,22.3,77.4,13.9,99.8-18.9c2-3,3.8-6.1,5.4-9.3L102.8,279.5z
		"/>
	
		<ellipse transform="matrix(0.1602 -0.9871 0.9871 0.1602 43.9874 762.501)" class="st2" cx="470.1" cy="355.4" rx="55.5" ry="55.5"/>
	<path class="st7" d="M470.1,411c21.5,0,41.1-12.5,50.3-32l-95.8-55.3c-17.6,25.1-11.4,59.7,13.7,77.3
		C447.6,407.5,458.7,411,470.1,411z"/>
</g>
<g id="pipe">
	<path class="st2" d="M358.6,141.9v68.9H387v-59c0,0-12-13.1-24.1-18.4L358.6,141.9z"/>
	<path class="st2" d="M354,259.4c0,0,5.2,2.9,19.4,2.9s20.1-2.9,20.1-2.9l-0.6-53.9c0,0-5.8-4.8-20-4.8s-19.5,4.8-19.5,4.8
		L354,259.4z"/>
	<path class="st4" d="M373.4,263.8c-14.4,0-19.9-3-20.1-3.1c-0.5-0.3-0.8-0.8-0.8-1.3l-0.6-54c0-0.4,0.2-0.8,0.5-1.1
		c0.2-0.2,5.9-5.2,20.5-5.2s20.7,5,21,5.2c0.3,0.3,0.5,0.7,0.5,1.1l0.6,54c0,0.6-0.3,1.1-0.8,1.4
		C393.9,260.9,387.8,263.8,373.4,263.8z M355.5,258.4c1.9,0.7,7.3,2.4,17.9,2.4s16.5-1.7,18.5-2.4l-0.6-52.2
		c-1.7-1.1-7.4-4.1-18.5-4.1s-16.4,3-18,4.1L355.5,258.4z"/>
	<path class="st0" d="M386,152.9c-1.6-1.8-3.4-3.6-5.3-5.4s-3.7-3.4-5.6-5s-4-3.1-6-4.5c-2.1-1.4-4.2-2.6-6.5-3.6l0,0
		c-0.5-0.2-0.8-0.9-0.5-1.4c0.2-0.5,0.8-0.7,1.4-0.5c2.4,1,4.7,2.3,6.9,3.6c2.2,1.4,4.3,2.9,6.4,4.4c2,1.6,4,3.2,6,4.9
		c1.9,1.7,3.8,3.5,5.6,5.4c0.6,0.6,0.5,1.6-0.1,2.2S386.6,153.6,386,152.9L386,152.9L386,152.9z"/>
</g>
<g id="wheel_details">
	<circle class="st5" cx="162.1" cy="320" r="53.8"/>
	<path class="st2" d="M162.1,285.6c-19,0-34.5,15.4-34.5,34.5s15.4,34.5,34.5,34.5c19,0,34.5-15.4,34.5-34.4l0,0
		C196.5,301,181.1,285.6,162.1,285.6z M162.1,347.6c-15.2,0-27.6-12.3-27.6-27.6s12.3-27.6,27.6-27.6s27.6,12.3,27.6,27.6l0,0
		C189.6,335.2,177.3,347.6,162.1,347.6L162.1,347.6L162.1,347.6z"/>
	<circle class="st2" cx="162.1" cy="320" r="11.3"/>
	<circle class="st5" cx="470.1" cy="355.4" r="41.6"/>
	<circle class="st2" cx="470.1" cy="355.4" r="11.3"/>
</g>
<g id="details">
	<path class="st6" d="M189.4,292.1l-2.5-2.5c-1.9-1.9-1.9-4.9,0-6.7l0,0c1.9-1.9,4.9-1.9,6.7,0l2.5,2.5c1.9,1.9,1.9,4.9,0,6.7l0,0
		C194.3,293.9,191.3,293.9,189.4,292.1z"/>
	<path class="st6" d="M173.2,310.3l-2-2c-1.5-1.5-1.5-3.9,0-5.4l0,0c1.5-1.5,3.9-1.5,5.4,0l2,2c1.5,1.5,1.5,3.9,0,5.4l0,0
		C177.1,311.8,174.7,311.8,173.2,310.3z"/>
	<path class="st6" d="M483.2,342.5l-2-2c-1.5-1.5-1.5-3.9,0-5.4l0,0c1.5-1.5,3.9-1.5,5.4,0l2,2c1.5,1.5,1.5,3.9,0,5.4l0,0
		C487.1,344,484.7,344,483.2,342.5z"/>
	<path class="st0" d="M401,79.4c0.1,0-0.1,0-0.2,0s-0.2,0.1-0.3,0.1c-0.2,0.1-0.4,0.3-0.5,0.5c-0.4,0.4-0.7,0.9-0.9,1.4
		c-0.5,1.2-0.9,2.4-1.1,3.7c-0.4,2.7-0.6,5.4-0.5,8.1c0,2.7,0.2,5.4,0.5,8.1c0.2,1.3,0.5,2.6,1,3.8c0.2,0.6,0.5,1.1,0.8,1.6
		c0.1,0.2,0.3,0.4,0.5,0.6c0.1,0.1,0.2,0.1,0.2,0.2h0.1l0,0c0,0,0,0-0.1,0c0.6,0,1,0.5,1,1s-0.5,1-1,1h-0.3l-0.2-0.1
		c-0.1,0-0.3-0.1-0.4-0.1c-0.2-0.1-0.4-0.2-0.6-0.3c-0.4-0.3-0.7-0.6-1-0.9c-0.5-0.6-1-1.3-1.3-2c-0.6-1.4-1-2.8-1.3-4.3
		c-0.5-2.8-0.7-5.7-0.7-8.6s0.2-5.8,0.8-8.6c0.3-1.5,0.8-2.9,1.5-4.2c0.4-0.7,0.9-1.4,1.6-1.9c0.4-0.3,0.8-0.5,1.2-0.7
		c0.2-0.1,0.5-0.1,0.7-0.2c0.3,0,0.6,0,0.9,0c0.5,0.1,0.8,0.6,0.7,1.1C402,79.2,401.5,79.5,401,79.4z"/>
</g>
</svg>
