<svg width="32" height="32" viewBox="0 0 32 32" fill="none" xmlns="http://www.w3.org/2000/svg">
<g clip-path="url(#clip0_467_67077)">
<path d="M31.6803 15.9998C31.6803 7.34 24.6601 0.319824 16.0003 0.319824C7.34049 0.319824 0.320312 7.34 0.320312 15.9998C0.320312 24.6596 7.34049 31.6798 16.0003 31.6798C24.6601 31.6798 31.6803 24.6596 31.6803 15.9998Z" fill="white"/>
<path d="M24.0516 18.4802C24.1147 18.5304 24.1561 18.5736 24.2183 18.6248C24.2558 18.6558 24.2561 18.6558 24.2929 18.6221C24.3186 18.5984 24.3435 18.5736 24.3699 18.5504C24.4759 18.4559 24.6187 18.4605 24.7176 18.5634C24.7569 18.6046 24.794 18.6482 24.8286 18.6938C24.9141 18.8059 24.9056 18.9525 24.809 19.0546C24.7819 19.0831 24.7532 19.1101 24.724 19.1362C24.6995 19.1579 24.6987 19.179 24.7161 19.2063C24.7517 19.2624 24.7863 19.3191 24.8197 19.3765C24.8623 19.4493 24.9001 19.5251 24.936 19.6015C24.9701 19.6744 24.9701 19.6739 25.0409 19.6505C25.0752 19.6381 25.1101 19.6277 25.1456 19.6194C25.2608 19.5961 25.3701 19.6548 25.4194 19.768C25.4492 19.8377 25.4715 19.9109 25.4859 19.9858C25.5071 20.0927 25.4451 20.2114 25.3459 20.2641C25.3075 20.2842 25.2653 20.2931 25.2251 20.3082C25.1766 20.3266 25.1724 20.3302 25.1803 20.3802C25.2061 20.5377 25.2241 20.696 25.2251 20.8559C25.2256 20.8909 25.2381 20.9108 25.2727 20.9138C25.3025 20.9164 25.332 20.9223 25.3616 20.9254C25.4797 20.9383 25.56 21.0003 25.5949 21.1223C25.598 21.1328 25.6057 21.3529 25.5954 21.4126C25.5727 21.5443 25.4753 21.6382 25.3473 21.6435C25.3196 21.6448 25.2919 21.6429 25.2646 21.6379C25.2141 21.6282 25.1808 21.6506 25.1685 21.7019C25.1384 21.8281 25.098 21.9507 25.0546 22.0724C25.0419 22.1075 25.0491 22.1384 25.0771 22.1631C25.0915 22.1761 25.1475 22.2395 25.1565 22.2606C25.1773 22.3091 25.0875 22.2337 25.0667 22.2211C25.0193 22.1924 24.4376 21.854 24.221 21.7327C24.2364 21.6121 24.2924 21.4578 24.3149 21.3389C24.4297 20.733 24.3109 20.1804 23.9785 19.6759C23.7021 19.2563 23.3235 18.9878 22.8585 18.8547C22.4493 18.7374 22.0437 18.7613 21.6459 18.9144C21.3167 19.0409 20.9562 19.2485 20.7585 19.5754C20.7358 19.6021 20.725 19.599 20.6893 19.5822C20.5655 19.5172 20.0805 19.1846 19.8832 19.0636C19.7959 18.9713 19.738 18.8201 19.8036 18.7085C19.8505 18.629 19.9135 18.5644 19.981 18.5064C20.0759 18.425 20.2134 18.4273 20.3143 18.5038C20.4393 18.5988 20.4391 18.5984 20.5605 18.4964C20.624 18.4431 20.6916 18.3958 20.7582 18.3471C20.8202 18.3019 20.8247 18.2836 20.7957 18.2126C20.7165 18.0189 20.7673 17.8718 20.9459 17.7761C20.9931 17.7497 21.0425 17.7276 21.0933 17.7103C21.2296 17.6666 21.3552 17.7178 21.4293 17.8457C21.5066 17.9792 21.5062 17.9789 21.6517 17.9436C21.7285 17.925 21.8065 17.9117 21.8842 17.8969C21.9618 17.8819 21.9736 17.869 21.978 17.7882C21.9798 17.7477 21.9856 17.7075 21.9953 17.6685C22.0158 17.5903 22.053 17.5216 22.1299 17.4909C22.2765 17.432 22.4247 17.4207 22.5687 17.4981C22.6535 17.5437 22.6931 17.6222 22.6942 17.7239C22.6959 17.8762 22.6968 17.8775 22.8381 17.9016C22.931 17.9175 23.0219 17.9411 23.1133 17.9638C23.1826 17.981 23.2004 17.9742 23.2275 17.904C23.2957 17.7259 23.4657 17.6351 23.6661 17.7388C23.7229 17.7682 23.7826 17.7897 23.8322 17.8371C23.9323 17.9327 23.9393 18.0738 23.8982 18.1768C23.8923 18.1913 23.8853 18.2051 23.8796 18.2197C23.8522 18.2912 23.8493 18.333 23.8493 18.333C23.8493 18.333 23.9895 18.431 24.0516 18.4802Z" fill="#5F5F5F"/>
<path d="M24.188 21.6741C24.2461 21.7328 25.0244 22.1811 25.0915 22.2234C25.1115 22.2261 25.1268 22.24 25.1449 22.2478C25.1588 22.2609 25.171 22.2743 25.1837 22.2888C25.2452 22.3797 25.2442 22.4756 25.2085 22.5759C25.1858 22.6292 25.1588 22.6803 25.1272 22.7283C25.054 22.8444 24.9188 22.8809 24.8 22.8179C24.7638 22.7987 24.7288 22.7774 24.6944 22.7544C24.6695 22.738 24.6523 22.7424 24.6348 22.7668C24.5395 22.8994 24.4336 23.0232 24.3183 23.1369C24.2951 23.1597 24.2924 23.1796 24.3119 23.2062C24.3345 23.236 24.3554 23.2674 24.3756 23.299C24.4577 23.4272 24.4355 23.5752 24.3195 23.6703C24.279 23.7032 24.2378 23.7354 24.1949 23.7648C24.0795 23.8437 23.9443 23.8214 23.8564 23.7098C23.8321 23.6785 23.8094 23.6459 23.7882 23.6121C23.7695 23.5825 23.7508 23.5758 23.7195 23.5946C23.5876 23.6736 23.4483 23.736 23.3061 23.7914C23.2544 23.8115 23.2549 23.8123 23.265 23.8693C23.2685 23.889 23.2714 23.9092 23.275 23.9289C23.3081 24.0958 23.2703 24.1862 23.1317 24.2718C23.0959 24.2927 23.0548 24.2894 23.0165 24.3001C22.9494 24.317 22.8818 24.3156 22.8136 24.3121C22.7913 24.3005 22.769 24.2879 22.7473 24.2753C22.6817 24.2178 22.6524 24.142 22.6354 24.055C22.6124 23.9372 22.6264 23.9564 22.5234 23.9615C22.387 23.9682 22.2503 23.9676 22.1139 23.9596C22.0609 23.9564 22.0609 23.9563 22.0487 24.0079C22.0431 24.032 22.0366 24.0558 22.0331 24.0802C22.011 24.2346 21.8932 24.3504 21.7051 24.3126C21.6591 24.3034 21.6136 24.2908 21.5686 24.2768C21.44 24.237 21.3656 24.1065 21.3915 23.9678C21.3978 23.9326 21.4056 23.8975 21.4122 23.8622C21.4211 23.8142 21.4205 23.8117 21.3747 23.7937C21.2868 23.7588 21.1992 23.7232 21.1147 23.6803C21.0648 23.655 21.0152 23.6284 20.966 23.6016C20.9147 23.5738 20.9151 23.5734 20.8792 23.6241C20.86 23.6511 20.8421 23.6789 20.8221 23.705C20.7344 23.8208 20.5962 23.845 20.4793 23.7641C20.4349 23.7332 20.3914 23.7002 20.3496 23.6653C20.2431 23.5763 20.2201 23.43 20.2934 23.3091C20.3151 23.2732 20.3393 23.2389 20.3638 23.2049C20.3808 23.1814 20.3819 23.1625 20.3601 23.1408C20.2432 23.0256 20.1361 22.9 20.0397 22.7653C20.0213 22.7397 20.0034 22.7398 19.9797 22.7555C19.9508 22.7746 19.9208 22.792 19.8908 22.8094C19.7562 22.8866 19.6161 22.8485 19.537 22.7099C19.5088 22.6601 19.4741 22.6145 19.4548 22.5588C19.4066 22.4206 19.4472 22.2928 19.5675 22.2158C19.5931 22.1994 19.6193 22.1844 19.6444 22.168C19.6888 22.1394 19.69 22.1386 19.6704 22.0884C19.6297 21.9847 19.5947 21.8784 19.5656 21.7704C19.5527 21.7232 19.5406 21.675 19.53 21.627C19.5223 21.5918 19.5048 21.5782 19.4706 21.5859C19.4432 21.5911 19.4157 21.595 19.3881 21.5973C19.2252 21.6154 19.1046 21.5127 19.0876 21.3417C19.0829 21.2945 19.078 21.2478 19.0748 21.2007C19.0705 21.1327 19.091 21.0654 19.1324 21.0129C19.1738 20.9603 19.2327 20.9266 19.297 20.9184C19.3329 20.9138 19.3691 20.9108 19.4048 20.9049C19.4516 20.8969 19.4531 20.8958 19.4538 20.8444C19.4559 20.7322 19.4641 20.6201 19.4781 20.5087C19.4841 20.4598 19.4996 20.4121 19.4962 20.362C19.4927 20.3277 19.4788 20.3064 19.4527 20.2957C19.4348 20.2902 19.4306 20.2879 19.4039 20.2808C19.3512 20.2673 19.3034 20.2434 19.2653 20.2026" fill="#414141"/>
<path d="M19.4993 20.3928C19.5053 20.3584 19.4913 20.3067 19.4577 20.2967C19.429 20.2883 19.3831 20.2702 19.3544 20.2611C19.2409 20.225 19.1695 20.1306 19.1571 20.0036C19.1427 19.9497 19.1878 19.775 19.2083 19.7183C19.2542 19.5935 19.3667 19.5208 19.4933 19.541C19.5207 19.5452 19.5477 19.5525 19.5735 19.5627C19.6214 19.5823 19.6582 19.567 19.6794 19.519C19.7315 19.401 19.8095 19.2842 19.8597 19.1654C19.9084 19.0506 19.8739 19.0601 19.8909 19.064C19.9325 19.1018 20.5384 19.4122 20.7294 19.5744C20.6051 19.7163 20.3285 20.3582 20.3171 20.573" fill="#414141"/>
<path d="M20.7351 19.5642C21.122 19.1237 21.3988 18.9346 21.7807 18.8203C22.013 18.7502 22.2556 18.7247 22.4965 18.745C22.9019 18.7795 23.268 18.9286 23.5905 19.1922C23.8747 19.4247 24.0819 19.7194 24.2231 20.0668C24.3095 20.2793 24.3551 20.5014 24.3764 20.7317C24.407 21.0614 24.34 21.4297 24.2326 21.737C24.2109 21.7573 23.8152 21.4719 23.7729 21.4163C23.7633 21.3864 23.7752 21.3589 23.7825 21.3311C23.8214 21.181 23.8466 21.0284 23.842 20.8725C23.8207 20.1227 23.3358 19.5041 22.6651 19.353C22.1702 19.2415 21.6454 19.3542 21.1649 19.8685C21.1528 19.8756 21.1491 19.8602 21.0675 19.8009C20.9306 19.7132 20.8632 19.6582 20.7695 19.5984C20.7159 19.5654 20.7186 19.5833 20.7351 19.5642Z" fill="#414141"/>
<path d="M24.2404 21.7154C24.2275 21.7371 24.2159 21.7594 24.2056 21.7826C24.0876 22.0821 23.8986 22.328 23.6684 22.5362C23.3673 22.8089 23.0179 22.9789 22.6213 23.0335C22.5241 23.047 22.4268 23.0617 22.3285 23.0584C22.0446 23.0489 21.7701 22.9939 21.508 22.8736C21.3416 22.7968 21.1859 22.6967 21.0451 22.5759C20.8258 22.3891 20.6477 22.1646 20.517 21.8986C20.3968 21.6536 20.3276 21.3944 20.2983 21.1213C20.2728 20.8862 20.2928 20.6555 20.3395 20.4252C20.393 20.1628 20.4926 19.9209 20.6318 19.6967C20.6516 19.6648 20.7092 19.5923 20.7279 19.5742C20.8291 19.6295 21.1052 19.8215 21.1494 19.8633C21.1774 19.9017 21.1258 19.9522 21.1098 19.9768C21.025 20.1075 20.9551 20.2455 20.9101 20.397C20.7535 20.925 20.8253 21.4164 21.1409 21.8581C21.4042 22.2267 21.7621 22.4287 22.1998 22.475C22.8235 22.5411 23.4635 22.168 23.7269 21.5098C23.7414 21.4734 23.7378 21.416 23.797 21.4132C23.8351 21.4592 24.1957 21.6895 24.2404 21.7154Z" fill="#5F5F5F"/>
<path d="M23.7988 21.4132C23.7491 21.5473 23.6936 21.6781 23.6158 21.7976C23.3692 22.1755 23.0327 22.4101 22.6042 22.491C22.1701 22.5727 21.7728 22.4707 21.4195 22.1957C21.1089 21.9537 20.9106 21.628 20.8341 21.2293C20.7436 20.758 20.8386 20.3243 21.1035 19.9324C21.1134 19.9177 21.1227 19.903 21.1326 19.8883C21.1427 19.8757 21.2743 19.7225 21.3384 19.666C21.6224 19.4154 21.9472 19.287 22.3185 19.2796C23.0142 19.2656 23.6417 19.7618 23.8227 20.4826C23.8952 20.7711 23.8933 21.0604 23.8145 21.3481C23.8086 21.3695 23.8039 21.3915 23.7988 21.4132Z" fill="#ED5050"/>
<path d="M22.7487 20.8987C22.7604 21.1453 22.5455 21.3363 22.3416 21.3337C22.1087 21.3309 21.9177 21.1385 21.9199 20.8944C21.9219 20.6559 22.0989 20.4587 22.3444 20.458C22.5491 20.4575 22.76 20.6504 22.7487 20.8987Z" fill="#414141"/>
<path d="M22.7731 20.0785C22.8206 20.0734 22.8601 20.0912 22.8929 20.1282C22.9219 20.1609 22.953 20.1918 22.9814 20.2253C23.0473 20.3028 23.0071 20.4449 22.9219 20.4727C22.8847 20.485 22.8506 20.4856 22.8178 20.463C22.7477 20.4145 22.6878 20.3532 22.6347 20.2858C22.5783 20.2143 22.607 20.1226 22.6909 20.0915C22.7172 20.0813 22.7452 20.0769 22.7731 20.0785Z" fill="#ED5050"/>
<path d="M11.6055 24.2873C11.4901 24.2232 11.4217 24.124 11.4011 23.9875C11.3941 23.941 11.3819 23.8955 11.3728 23.8492C11.3664 23.8168 11.351 23.8059 11.3189 23.8086C11.1148 23.8267 10.9096 23.829 10.7052 23.8154C10.6775 23.8137 10.6498 23.812 10.6223 23.8086C10.5961 23.8055 10.5824 23.8169 10.577 23.8435C10.5673 23.8918 10.5542 23.9395 10.5467 23.9883C10.5233 24.1386 10.4451 24.242 10.312 24.3002C10.2268 24.3246 10.1417 24.316 10.0567 24.2994C9.97782 24.284 9.89689 24.2767 9.82545 24.2332C9.79798 24.2119 9.76854 24.1935 9.74475 24.1671C9.65986 24.0726 9.62472 23.9623 9.64665 23.8335C9.65491 23.7849 9.66585 23.737 9.67516 23.6885C9.69087 23.6057 9.69075 23.6053 9.6175 23.578C9.4507 23.5155 9.28802 23.4415 9.13046 23.3565C9.09253 23.3362 9.05407 23.3161 9.01782 23.2929C8.99013 23.275 8.97174 23.2787 8.95377 23.3064C8.92613 23.3489 8.89547 23.3893 8.86806 23.4323C8.75123 23.615 8.522 23.6686 8.34181 23.5222C8.29462 23.4837 8.24476 23.4489 8.1974 23.4108C8.03019 23.2762 7.9997 23.0616 8.12153 22.8798C8.15342 22.8321 8.18606 22.7848 8.21939 22.7381C8.23522 22.7161 8.23493 22.6981 8.21491 22.68C8.20514 22.6713 8.19641 22.6613 8.18716 22.6521C8.03106 22.4957 7.88688 22.3267 7.75592 22.1465C7.7188 22.0952 7.71845 22.0955 7.66387 22.1286C7.62687 22.1509 7.5901 22.1735 7.55315 22.196C7.35871 22.3132 7.16555 22.2617 7.0454 22.0611C7.02894 22.0355 7.02271 22.026 7.00549 21.9953C6.98425 21.9518 6.95865 21.9112 6.93939 21.8664C6.85747 21.6751 6.91455 21.4794 7.08613 21.3714C7.12633 21.3461 7.16723 21.3217 7.20785 21.2965C7.26195 21.2629 7.26254 21.2625 7.23926 21.2037C7.1645 21.0149 7.10283 20.8209 7.05471 20.6228C7.04674 20.5901 7.03801 20.5577 7.03161 20.5247C7.02521 20.4918 7.007 20.481 6.97646 20.4851C6.91938 20.4927 6.86219 20.5016 6.80476 20.505C6.65739 20.5139 6.54364 20.4523 6.46667 20.319C6.43467 20.2642 6.42262 20.2027 6.41721 20.1393C6.41326 20.092 6.40441 20.0497 6.40139 19.9988C6.38894 19.8073 6.49302 19.5667 6.72179 19.5496C6.77067 19.5459 6.81931 19.5382 6.86812 19.5324C6.9245 19.5258 6.92648 19.5252 6.92776 19.4687C6.93142 19.3025 6.94428 19.1366 6.96622 18.972C6.97518 18.9052 6.98542 18.8387 6.99659 18.7724C7.00729 18.7091 7.00735 18.7077 6.94742 18.687C6.90256 18.6716 6.85771 18.6572 6.81355 18.6414C6.62172 18.5731 6.52264 18.3807 6.57646 18.1759C6.59635 18.1002 6.62073 18.0257 6.64697 17.9521C6.71417 17.7624 6.8982 17.6668 7.0827 17.7241C7.13797 17.7413 7.1933 17.7585 7.247 17.7801C7.28133 17.7936 7.29663 17.7823 7.31106 17.7504C7.3451 17.6754 7.3821 17.6018 7.41794 17.5278C7.43074 17.5024 7.44249 17.482 7.45413 17.4585C7.49259 17.3843 7.53337 17.3112 7.5823 17.2434C7.62629 17.203 15.0336 21.792 15.0129 21.8449C14.9986 21.872 14.9872 21.898 14.9735 21.9242C14.9474 21.973 14.9226 22.0228 14.8949 22.0706C14.7892 22.2517 14.5968 22.3068 14.4173 22.208C14.3701 22.1821 14.3248 22.1522 14.2785 22.1244C14.2303 22.0955 14.2298 22.0952 14.197 22.1398C14.1239 22.2393 14.0474 22.3359 13.9676 22.4295C13.8961 22.513 13.8206 22.5921 13.7437 22.67C13.7083 22.7058 13.7084 22.7069 13.7356 22.7475C13.7663 22.7935 13.7987 22.8381 13.8292 22.8842C13.9472 23.063 13.9156 23.2783 13.7516 23.4099C13.699 23.4521 13.6456 23.4931 13.5914 23.5329C13.421 23.6573 13.2186 23.6234 13.0925 23.4493C13.0605 23.4046 13.03 23.3583 12.998 23.3134C12.9691 23.2729 12.968 23.2722 12.9255 23.2966C12.7516 23.397 12.571 23.484 12.3852 23.557C12.3591 23.5673 12.3329 23.5768 12.3071 23.5871C12.2602 23.6059 12.2593 23.6066 12.2686 23.6613C12.2769 23.71 12.2838 23.7593 12.2971 23.8065C12.3465 23.983 12.2432 24.1961 12.0139 24.271C11.9148 24.3036 11.7 24.3272 11.6055 24.2873Z" fill="#414141"/>
<path d="M14.9985 21.8583C14.843 21.7632 13.4583 20.8645 13.3613 20.8081C13.3087 20.78 13.3258 20.7766 13.3578 20.7136C13.471 20.4587 13.5472 20.1873 13.5839 19.9086C13.6102 19.7055 13.6088 19.5016 13.5929 19.297C13.578 19.1044 13.5437 18.9139 13.4904 18.7288C13.4225 18.4931 13.3244 18.2726 13.2031 18.0617C13.0678 17.8265 12.8955 17.6257 12.7051 17.4406C12.5588 17.2983 12.3933 17.1826 12.2186 17.0822C11.9562 16.9302 11.6706 16.8278 11.3747 16.7793C11.1889 16.7489 11.0013 16.734 10.8137 16.7469C10.4146 16.7745 10.0367 16.8851 9.68521 17.0886C9.40791 17.2535 9.15977 17.4673 8.95165 17.7211C8.89859 17.7859 8.82307 17.9148 8.77106 17.9801C8.74121 18.0176 8.24434 17.678 7.56838 17.2567C7.59334 17.2105 7.61737 17.1727 7.64402 17.1323C7.6606 17.1071 7.65926 17.0879 7.63762 17.068C7.59613 17.0292 7.55482 16.9903 7.5141 16.9506C7.3847 16.8241 7.35445 16.6563 7.43549 16.4915C7.45399 16.4538 7.48745 16.3651 7.53847 16.3007C7.56314 16.2694 7.59031 16.241 7.61696 16.212C7.74746 16.0698 8.00108 16.0673 8.13722 16.1983C8.30205 16.3568 8.28041 16.32 8.41917 16.2078C8.53781 16.1121 8.65783 16.0188 8.78333 15.933C8.85082 15.887 8.85519 15.8647 8.82103 15.7874C8.78298 15.7013 8.74871 15.6147 8.75605 15.5162C8.76518 15.3947 8.81202 15.2908 8.90627 15.2233C9.04085 15.127 9.18374 15.0477 9.35543 15.0526C9.49722 15.0568 9.59654 15.1311 9.66863 15.2528C9.69423 15.2965 9.71418 15.3443 9.7349 15.3911C9.75415 15.435 9.78528 15.4493 9.82892 15.4373C10.0128 15.3865 10.199 15.3481 10.3864 15.3162C10.4545 15.3046 10.4683 15.2835 10.4709 15.2123C10.4721 15.1875 10.4721 15.1627 10.4709 15.138C10.4564 14.9114 10.6229 14.7213 10.8199 14.7081C10.9284 14.7008 11.0372 14.6921 11.1449 14.7148C11.3034 14.7486 11.4594 14.9015 11.4437 15.1114C11.4415 15.1405 11.4431 15.1699 11.4437 15.1992C11.4451 15.2855 11.4605 15.3066 11.5414 15.3189C11.7168 15.3447 11.8905 15.382 12.0615 15.4306C12.1519 15.4567 12.166 15.4472 12.2037 15.3581C12.2332 15.2883 12.2628 15.2184 12.315 15.1624C12.4205 15.0495 12.5517 15.0313 12.6885 15.0631C12.7968 15.0883 12.8985 15.1401 12.9918 15.2041C13.1437 15.3085 13.1991 15.496 13.1373 15.6783C13.1244 15.7163 13.1089 15.7535 13.0927 15.7902C13.0607 15.8622 13.0662 15.8885 13.1299 15.931C13.2637 16.0194 13.3925 16.1157 13.5158 16.2197C13.6508 16.3345 13.6267 16.3519 13.7757 16.2099C13.9061 16.0855 14.1076 16.0706 14.2266 16.1559C14.3472 16.2421 14.4521 16.3508 14.5218 16.4867C14.5837 16.6078 14.5754 16.8304 14.452 16.9423C14.415 16.9761 14.3822 17.0148 14.3477 17.0517C14.3179 17.0839 14.3139 17.1189 14.3375 17.1554C14.4478 17.3266 14.5465 17.5057 14.6329 17.6913C14.6542 17.737 14.6906 17.7485 14.7354 17.7336C14.7882 17.7157 14.8422 17.7014 14.8967 17.691C15.0428 17.6641 15.2036 17.7317 15.2785 17.8666C15.3512 17.9974 15.3961 18.141 15.4006 18.2945C15.4056 18.4632 15.3257 18.58 15.1892 18.6577C15.1438 18.6829 15.0959 18.7028 15.0465 18.7173C14.9942 18.733 14.9718 18.7664 14.9824 18.8226C15.0193 19.0238 15.0315 19.2276 15.0436 19.4317C15.0468 19.4858 15.0716 19.5156 15.1231 19.5171C15.1616 19.5183 15.1994 19.5258 15.2374 19.5311C15.4333 19.5581 15.5673 19.7187 15.568 19.9275C15.5684 19.9679 15.5665 20.0083 15.5626 20.0486C15.5562 20.1119 15.5346 20.2029 15.5176 20.2623C15.4687 20.4351 15.303 20.5298 15.1323 20.5184C15.077 20.5147 15.0221 20.5054 14.9667 20.4996C14.916 20.4944 14.9134 20.4951 14.9009 20.5481C14.8629 20.7073 14.8215 20.8655 14.7672 21.0195C14.742 21.0911 14.7161 21.1624 14.6874 21.2326C14.6746 21.2637 14.68 21.2829 14.7074 21.2991C14.7613 21.3313 14.8156 21.3626 14.8676 21.3982C15.0063 21.4927 15.0636 21.6646 15.0131 21.8287C15.009 21.8389 15.0041 21.8489 14.9985 21.8583Z" fill="#666059"/>
<path d="M9.35104 18.3098C9.4151 18.2289 9.4759 18.1447 9.54606 18.0688C9.87706 17.7105 10.277 17.5002 10.7492 17.4442C11.1668 17.3946 11.5631 17.4712 11.929 17.6881C12.4924 18.0221 12.8284 18.5311 12.9345 19.2021C12.996 19.5918 12.9494 19.9724 12.8024 20.3377C12.7942 20.3582 12.7883 20.3799 12.7813 20.4012C12.7973 20.4363 12.7817 20.4666 12.7678 20.497C12.6965 20.6523 12.6028 20.7916 12.4943 20.919C12.1823 21.2856 11.8004 21.5286 11.337 21.6126C10.7218 21.7242 10.1667 21.5742 9.68424 21.1552C9.29291 20.8152 9.0571 20.3752 8.98112 19.8474C8.92206 19.4368 8.97123 19.0366 9.13274 18.6544C9.1719 18.5618 9.21943 18.4742 9.26731 18.3863C9.28686 18.3497 9.31235 18.3224 9.35104 18.3098Z" fill="#ED5050"/>
<path d="M9.70727 19.5199C9.69669 18.763 10.3113 18.1862 10.9632 18.1826C11.6027 18.1792 12.2407 18.7156 12.2418 19.5266C12.243 20.2794 11.6629 20.8517 10.9859 20.859C10.2483 20.867 9.69372 20.2259 9.70727 19.5199Z" fill="#45423D"/>
<path d="M12.2199 18.2859C12.2305 18.3978 12.0975 18.4854 12.0051 18.4209C11.9423 18.3769 11.8831 18.3323 11.8334 18.2739C11.7619 18.19 11.7782 18.1028 11.873 18.0479C11.9432 18.0073 12.0087 18.0044 12.0735 18.0627C12.1192 18.1036 12.1634 18.1448 12.1961 18.1982C12.2127 18.2241 12.2211 18.2548 12.2199 18.2859Z" fill="#ED5050"/>
<path d="M9.96332 19.5294C9.94761 18.9826 10.3683 18.4492 10.9788 18.4517C11.5491 18.454 11.9943 18.9359 11.9885 19.5385C11.983 20.1327 11.5154 20.5985 10.9597 20.5912C10.3834 20.5838 9.94772 20.0728 9.96332 19.5294Z" fill="#ED5050"/>
<path d="M10.9715 19.9575C10.7443 19.9575 10.555 19.7585 10.5567 19.5188C10.5581 19.2824 10.7319 19.0847 10.9742 19.0821C11.1951 19.0797 11.388 19.2721 11.3868 19.5224C11.3857 19.7664 11.2037 19.9577 10.9715 19.9575Z" fill="#414141"/>
<path d="M11.4507 18.7964C11.4746 18.7964 11.498 18.7991 11.5183 18.8132C11.6065 18.8749 11.6538 18.9607 11.6506 19.0734C11.6489 19.1314 11.57 19.1923 11.5163 19.1794C11.4253 19.1577 11.3512 19.1102 11.3006 19.0248C11.2567 18.951 11.2654 18.8892 11.331 18.8369C11.3665 18.809 11.4071 18.7975 11.4507 18.7964Z" fill="#ED5050"/>
<path d="M9.35115 18.3098C9.285 18.4201 9.221 18.5313 9.16986 18.6506C9.08393 18.8517 9.02819 19.0659 9.00445 19.2852C8.97303 19.5616 8.99473 19.8419 9.06827 20.1094C9.14187 20.3769 9.2658 20.6259 9.43273 20.8419C9.68646 21.1701 10.0062 21.3962 10.3894 21.5223C10.6114 21.5953 10.84 21.6289 11.0716 21.6128C11.6774 21.5706 12.1715 21.2989 12.5491 20.7959C12.6283 20.6898 12.6967 20.5752 12.753 20.454C12.7615 20.436 12.772 20.419 12.7814 20.4014C12.8341 20.4274 13.2439 20.7063 13.3137 20.7577C13.3415 20.778 13.3289 20.805 13.3157 20.8298C13.2437 20.9652 13.1677 21.0979 13.0761 21.2199C12.876 21.4866 12.6426 21.7141 12.3664 21.8924C12.0984 22.0656 11.804 22.1886 11.4962 22.2561C11.2581 22.3089 11.0168 22.3168 10.7764 22.301C10.4565 22.2803 10.1499 22.1949 9.85809 22.0523C9.65818 21.9557 9.47083 21.8326 9.30059 21.6859C8.96576 21.3952 8.70603 21.044 8.53801 20.6201C8.43066 20.3478 8.36346 20.0598 8.33891 19.7661C8.30045 19.3283 8.36637 18.9068 8.5127 18.4971C8.56634 18.347 8.63709 18.2063 8.71273 18.0679C8.72011 18.0544 8.72849 18.0409 8.73705 18.0282C8.78301 17.9595 8.79174 17.9573 8.86004 17.9983C8.97472 18.0672 9.1954 18.2115 9.30769 18.2837C9.3227 18.2914 9.33725 18.3001 9.35115 18.3098Z" fill="#666059"/>
<path d="M12.913 19.9659C12.9709 19.6943 12.9763 19.413 12.9289 19.139C12.8815 18.8651 12.7822 18.604 12.637 18.3714C12.3942 18.0416 12.0893 17.7637 11.7509 17.5923C11.5396 17.4964 11.3133 17.443 11.0834 17.4348C10.4766 17.412 9.95641 17.6237 9.53261 18.0841C9.466 18.1578 9.40339 18.2354 9.34521 18.3166C9.29535 18.2853 8.83635 18.0385 8.77177 17.9798C8.74617 17.9565 8.94632 17.7176 9.04912 17.606C9.27394 17.3619 9.52802 17.1603 9.81997 17.0127C10.0932 16.8642 10.4056 16.7794 10.7207 16.7441C10.9623 16.7166 11.2064 16.7234 11.4463 16.7644C11.7625 16.8191 12.0541 16.9488 12.3306 17.122C12.5202 17.2396 12.6948 17.3821 12.85 17.5462C13.1551 17.8712 13.3797 18.2483 13.5062 18.6881C13.5868 18.9704 13.6258 19.2642 13.622 19.559C13.6178 19.9988 13.513 20.4028 13.3608 20.7282C13.3307 20.7928 13.358 20.7912 13.2706 20.7282C13.1631 20.6473 12.8949 20.4781 12.7818 20.4016C12.7747 20.3959 12.8671 20.1825 12.913 19.9659Z" fill="#45423D"/>
<path d="M10.0941 8.50373C10.0474 8.3474 10.0116 8.18792 9.9723 8.02949C9.96195 7.98777 9.97358 7.97655 10.0158 7.96572C12.3526 7.36709 15.1941 7.82452 16.6536 8.29026C16.8849 8.37771 17.11 8.47929 17.3183 8.61829C17.4086 8.67863 17.4943 8.74513 17.5618 8.83432C17.5806 8.85876 17.5974 8.88471 17.6123 8.91193C17.6476 8.9782 17.6555 9.04494 17.6223 9.11737C17.5455 9.28546 17.4619 9.44971 17.3715 9.61023C17.313 9.71473 17.2531 9.81817 17.1938 9.92226C17.1659 9.97271 17.1347 10.021 17.1002 10.0668C17.0701 10.0964 17.0361 10.0821 17.0036 10.0745C16.8606 10.0407 16.7163 10.0143 16.5743 9.97748C16.5638 9.97474 16.5531 9.97934 16.5425 9.97974C16.3937 9.92895 16.2367 9.92319 16.0855 9.88526C16.0657 9.88025 16.0485 9.89288 16.0296 9.8895C15.7813 9.83865 15.5297 9.813 15.2798 9.77681C15.1919 9.76407 15.1011 9.77081 15.016 9.73771C14.9834 9.70146 14.9775 9.6541 14.9665 9.60837C14.9035 9.33876 14.8217 9.07711 14.6718 8.84473C14.649 8.80942 14.6242 8.77573 14.5982 8.74292C14.5202 8.6443 14.4271 8.58559 14.3006 8.56814C13.9708 8.52241 13.6406 8.48296 13.3094 8.45335C12.7583 8.40389 12.2065 8.39545 11.6544 8.40366C11.3819 8.40767 11.1097 8.42676 10.8378 8.45148C10.6125 8.47173 10.3879 8.49576 10.1639 8.527C10.1361 8.52985 10.1122 8.52811 10.0941 8.50373Z" fill="#ED5050"/>
<path d="M17.8425 13.2107C17.6874 13.2096 17.5321 13.2062 17.377 13.2085C17.3275 13.2092 17.3165 13.1789 17.3057 13.1414C17.2636 13.1279 17.2649 13.0874 17.2584 13.0536C17.2082 12.7938 17.1611 12.5332 17.1064 12.2743C16.9721 11.6377 16.8212 11.0057 16.6378 10.3827C16.6062 10.2754 16.5722 10.1688 16.5412 10.0612C16.5319 10.0285 16.5138 9.99277 16.5443 9.95995C16.5556 9.94645 16.5705 9.94645 16.5852 9.94919C16.758 9.98293 16.9304 10.0167 17.1001 10.0654C17.2115 10.3957 17.3052 10.7317 17.3917 11.07C17.5091 11.5297 17.6099 11.9937 17.7038 12.4593C17.7389 12.6332 17.8421 13.2064 17.8425 13.2107Z" fill="#45423D"/>
<path d="M10.0945 8.50348C10.2986 8.46677 10.5047 8.44542 10.7106 8.42598C10.859 8.41196 11.0083 8.40294 11.1571 8.39224C11.5707 8.36198 11.9847 8.36257 12.3985 8.36995C12.6991 8.37531 12.9994 8.39206 13.2995 8.4172C13.4994 8.43395 13.699 8.45321 13.8981 8.47713C14.0653 8.49743 14.2313 8.52664 14.3986 8.54956C14.4527 8.55695 14.4934 8.58488 14.5321 8.62211C14.6653 8.75035 14.7594 8.90726 14.8332 9.07843C14.9212 9.28195 14.9816 9.49473 15.0216 9.71407C15.0123 9.74485 14.9885 9.74526 14.9644 9.74369C14.8581 9.73694 14.7515 9.72908 14.6456 9.71867C14.5522 9.70953 14.4584 9.70517 14.3651 9.69964C14.2164 9.69097 14.0674 9.67398 13.9179 9.68265C13.8602 9.68608 13.8034 9.67078 13.7458 9.66985C13.6679 9.66863 13.6437 9.68638 13.6167 9.76248C13.4574 10.2112 13.3262 10.6692 13.2109 11.1324C13.0328 11.848 12.8969 12.573 12.7826 13.3026C12.752 13.4976 12.7271 13.6935 12.6998 13.889C12.6942 13.9288 12.6901 13.9695 12.6661 14.0038C12.6473 14.0237 12.6234 14.025 12.6005 14.0187C12.4934 13.9896 12.387 13.957 12.2801 13.927C12.2717 13.925 12.264 13.921 12.2574 13.915C12.2509 13.9092 12.2459 13.9017 12.2428 13.8933C12.2256 13.8445 12.2364 13.7949 12.2433 13.7468C12.3522 12.9576 12.4856 12.1734 12.661 11.3974C12.785 10.8487 12.9264 10.3055 13.1075 9.77435C13.1349 9.694 13.1195 9.67067 13.0395 9.66974C12.722 9.66601 12.405 9.67759 12.0877 9.69359C11.9282 9.70168 11.7689 9.7086 11.6098 9.72262C11.5992 9.72262 11.5885 9.72303 11.5778 9.72309C11.4118 9.72425 11.4079 9.72809 11.3556 9.89089C11.0509 10.8372 10.8379 11.8073 10.6733 12.7903C10.6241 13.0843 10.5809 13.3793 10.5371 13.6742C10.5332 13.7012 10.5303 13.7277 10.5142 13.7504C10.4988 13.7765 10.4734 13.78 10.4479 13.7841C10.3156 13.8044 10.1824 13.8185 10.0506 13.8431C10.0209 13.8488 9.98451 13.8554 9.97852 13.8051C10.0006 13.6497 10.0227 13.4943 10.0449 13.3389C10.1023 12.9346 10.1674 12.5318 10.24 12.1304C10.3352 11.6045 10.4441 11.0827 10.5787 10.5672C10.6428 10.3227 10.709 10.0788 10.7896 9.83951C10.8177 9.75567 10.8176 9.75567 10.7567 9.69772C10.6097 9.5575 10.4632 9.41676 10.3154 9.27742C10.2882 9.25228 10.2693 9.21889 10.261 9.18182C10.211 8.97749 10.1585 8.77379 10.1068 8.56987C10.0979 8.54904 10.0936 8.52635 10.0945 8.50348Z" fill="#45423D"/>
<path d="M10.0951 8.50342C10.1029 8.52471 10.1118 8.54577 10.1072 8.56957C10.0945 8.54944 10.0783 8.52972 10.0951 8.50342Z" fill="#A9A9A9"/>
<path d="M13.488 14.3711C13.2425 14.2321 12.985 14.1226 12.7217 14.0277C12.6978 14.0191 12.6726 14.0127 12.6543 13.9919C12.6814 13.7941 12.7064 13.5959 12.7359 13.3984C12.8043 12.9412 12.8841 12.4864 12.9754 12.0337C13.1145 11.3477 13.2808 10.6695 13.4995 10.0064C13.5345 9.90031 13.5708 9.79465 13.6072 9.68911C13.6256 9.63576 13.6264 9.63552 13.6807 9.63715C13.9835 9.64617 14.2863 9.65839 14.5887 9.6784C14.7334 9.68789 14.8777 9.70197 15.0222 9.71395C15.261 9.73816 15.4989 9.76911 15.7364 9.8046C15.8373 9.81967 15.9383 9.83363 16.0385 9.85324C16.0961 9.8775 16.1319 9.92393 16.1667 9.97728C16.299 10.1803 16.4043 10.3995 16.492 10.6254C16.5838 10.8616 16.6677 11.1026 16.7243 11.3524C16.7466 11.4507 16.7783 11.5464 16.8012 11.6444C16.8763 11.9668 16.9593 12.287 17.02 12.6131C17.051 12.7803 17.0841 12.9474 17.1249 13.1126C17.1359 13.1566 17.154 13.2064 17.1001 13.238C17.0944 13.2448 17.0897 13.2532 17.0826 13.2572C16.9875 13.3102 16.9233 13.3965 16.8609 13.4844C16.7565 13.6313 16.6532 13.7789 16.5495 13.9263C16.5204 13.9398 16.4962 13.9286 16.4724 13.9106C16.3475 13.8163 16.2214 13.7237 16.0942 13.6327C16.0295 13.5864 16.0246 13.5631 16.0679 13.4947C16.1296 13.3975 16.1957 13.3037 16.2592 13.2078C16.2837 13.171 16.3098 13.1352 16.3298 13.0953C16.3657 13.0231 16.3524 12.9511 16.2973 12.9079C16.242 12.8648 16.1731 12.8735 16.1202 12.9361C16.0533 13.0151 16.0007 13.1057 15.9436 13.1926C15.7624 13.4678 15.5808 13.7427 15.3988 14.0174C15.3818 14.0432 15.3643 14.069 15.3528 14.0984C15.3261 14.1653 15.3447 14.2341 15.3986 14.2712C15.4543 14.3095 15.5185 14.302 15.5657 14.245C15.6317 14.1653 15.6841 14.0746 15.7416 13.9885C15.7781 13.9332 15.8147 13.8778 15.8526 13.8235C15.8788 13.7857 15.908 13.78 15.9459 13.8057C16.0842 13.8993 16.2162 14.0024 16.3511 14.1012C16.3736 14.1177 16.3959 14.1372 16.3951 14.1711C16.3529 14.2436 16.3108 14.3161 16.2683 14.3883C16.247 14.4246 16.2242 14.4598 16.2031 14.4963C16.1154 14.6474 16.1126 14.8035 16.1883 14.9585C16.3919 15.3759 16.6034 15.7888 16.8423 16.1855C16.872 16.235 16.9039 16.2826 16.9337 16.3317C17.0179 16.4698 17.1436 16.5252 17.2916 16.53C17.4342 16.5343 17.5765 16.5179 17.7186 16.5048C17.7153 17.1297 17.5456 17.7014 17.2278 18.2276C17.1832 18.3011 17.1351 18.3326 17.0483 18.33C16.8183 18.3227 16.5879 18.3286 16.3577 18.3293C16.3112 18.3225 16.3128 18.2792 16.3064 18.2466C16.2791 18.1126 16.2432 17.9812 16.2053 17.8501C16.0597 17.3445 15.8486 16.8625 15.5779 16.4177C15.4905 16.2739 15.3928 16.1381 15.3012 15.9976C15.2161 15.8805 15.1242 15.7691 15.0295 15.661C14.8606 15.4683 14.6854 15.2822 14.4937 15.1141C14.2164 14.8725 13.9193 14.657 13.606 14.4704C13.5626 14.4429 13.5106 14.4259 13.488 14.3711Z" fill="#B9E1E1"/>
<path d="M17.085 13.254C17.1028 13.2135 17.1013 13.1576 17.0921 13.1194C17.0111 12.7869 16.4395 10.469 16.1164 9.95882C16.0771 9.89704 16.0679 9.88063 16.0371 9.85352C16.189 9.86597 16.3377 9.89971 16.4882 9.92188C16.4998 9.92328 16.5108 9.92746 16.5205 9.93427C16.5301 9.94096 16.5381 9.95004 16.5439 9.96069C16.7458 10.6066 16.9189 11.2608 17.0634 11.9235C17.152 12.3273 17.2429 12.7613 17.3151 13.1688L17.3162 13.1714C17.3308 13.1998 17.3345 13.192 17.2499 13.2032C17.1975 13.2102 17.127 13.2349 17.085 13.254Z" fill="#DCF9FB"/>
<path d="M12.2578 13.8854C12.1264 13.8584 11.9951 13.8289 11.8633 13.8051C11.7061 13.777 11.5476 13.7577 11.3885 13.7471C11.2379 13.7368 11.0886 13.7336 10.9378 13.7333C10.853 13.7333 10.7671 13.742 10.6818 13.7354C10.6469 13.7072 10.6532 13.6689 10.6583 13.6304C10.7306 13.0808 10.8147 12.5335 10.9244 11.99C11.0013 11.6072 11.0879 11.2271 11.1944 10.8526C11.2962 10.4948 11.4148 10.1432 11.5985 9.82103C11.6261 9.77257 11.6305 9.73248 11.6012 9.68704C11.6215 9.67849 11.643 9.67855 11.6642 9.6775C12.1478 9.65446 12.6313 9.62938 13.1155 9.63404C13.1364 9.63404 13.1581 9.62886 13.1785 9.6398C13.1866 9.664 13.173 9.68378 13.166 9.70397C12.9525 10.3183 12.7912 10.9491 12.6522 11.5863C12.5343 12.127 12.4365 12.6717 12.3522 13.2191C12.3182 13.4409 12.2893 13.6634 12.2578 13.8854Z" fill="#B9E1E1"/>
<path d="M11.6441 9.67882C11.7307 9.66811 11.7225 9.67311 11.6706 9.76655C11.5304 10.0188 11.4124 10.2781 11.3223 10.5517C11.27 10.7103 11.2193 10.8703 11.1801 11.0339C11.1374 11.2124 11.0869 11.3888 11.0473 11.5683C11.0071 11.7499 10.9732 11.9328 10.936 12.1151C10.8979 12.3017 10.8591 12.4882 10.8302 12.6766C10.7853 12.9692 10.742 13.2619 10.7002 13.5548C10.6917 13.6145 10.681 13.6745 10.6827 13.7355C10.6611 13.7457 10.5132 13.7618 10.502 13.7355C10.5117 13.5919 10.5373 13.4505 10.5583 13.3086C10.6105 12.9581 10.6691 12.6088 10.7342 12.2606C10.886 11.4559 11.073 10.6606 11.3237 9.88338C11.3395 9.83457 11.3583 9.78663 11.3723 9.73717C11.3805 9.70826 11.3968 9.69749 11.423 9.69668C11.4831 9.69354 11.6335 9.67835 11.6441 9.67882Z" fill="#DCF9FB"/>
<path d="M19.6386 19.5773C19.4894 19.5652 19.3232 19.4416 19.2046 19.7609C19.0866 20.0773 19.26 20.1992 19.2339 20.1886C19.221 20.1868 19.208 20.1864 19.195 20.1873C19.0973 20.1886 18.9964 20.1715 18.8989 20.1714C18.8644 20.1546 18.8725 20.125 18.8782 20.0961C18.9273 19.8472 19.0025 19.6051 19.1025 19.3737C19.2348 19.0704 19.3967 18.7864 19.5995 18.5286C19.8816 18.1704 20.2119 17.8737 20.5961 17.6432C20.9959 17.4032 21.4251 17.2549 21.8799 17.1902C22.0996 17.159 22.3211 17.1474 22.5432 17.1638C22.6274 17.17 22.6933 17.1338 22.7385 17.0607C22.757 17.0308 22.7774 17.0082 22.809 16.9964C22.8456 16.996 22.8789 17.0123 22.9138 17.0205C22.9907 17.0387 22.9986 17.0357 23.0323 16.9624C23.0868 16.8441 23.1433 16.7268 23.2137 16.6174C23.231 16.6057 23.2454 16.5898 23.2558 16.5711C23.347 16.424 23.4636 16.3024 23.6007 16.2025C23.6046 16.2006 23.609 16.1998 23.6131 16.2004C23.6628 16.2004 23.6757 16.2402 23.6876 16.2792C23.7402 16.4504 23.7992 16.6186 23.8722 16.7817C23.9931 17.0516 24.1423 17.3015 24.334 17.5219C24.3625 17.5548 24.3986 17.5841 24.3819 17.6376C24.2821 17.8222 24.1823 18.0068 24.0825 18.1912C24.0678 18.2183 24.0517 18.2446 24.0361 18.2713C24.0083 18.3177 23.977 18.3617 23.9425 18.4029C23.9336 18.3959 23.924 18.3899 23.914 18.3848C23.9083 18.3819 23.8974 18.3717 23.8917 18.3684C23.7872 18.3086 23.8021 18.3046 23.8542 18.1929C23.8868 18.1225 23.9038 18.0511 23.8832 17.9718C23.875 17.9389 23.8605 17.9083 23.8406 17.8817C23.8206 17.8552 23.7957 17.8333 23.7674 17.8173C23.7006 17.779 23.6311 17.7429 23.5548 17.7262C23.4477 17.7028 23.3358 17.7551 23.2841 17.857C23.2671 17.8909 23.2552 17.9271 23.2393 17.9614C23.2167 18.0116 23.2036 18.0186 23.154 18.0038C23.0226 17.9643 22.8899 17.932 22.7538 17.916C22.741 17.9144 22.7289 17.9092 22.7162 17.908C22.6799 17.9035 22.6645 17.881 22.6649 17.8441C22.6649 17.8082 22.6626 17.772 22.6649 17.7361C22.6733 17.6001 22.591 17.5081 22.4717 17.4833C22.3856 17.4653 22.2967 17.4665 22.2112 17.4868C22.1018 17.5127 22.037 17.5831 22.0217 17.7029C22.0155 17.7471 22.0119 17.7919 22.0108 17.8367C22.0103 17.8952 22.0065 17.9001 21.9505 17.9117C21.8814 17.926 21.8119 17.9368 21.7427 17.9505C21.6715 17.9649 21.601 17.9828 21.5313 18.0042C21.4859 18.0181 21.4753 18.0125 21.4564 17.9679C21.439 17.9269 21.4227 17.8856 21.4003 17.8471C21.3411 17.7458 21.2341 17.6991 21.1247 17.7288C21.046 17.7504 20.9712 17.7851 20.9031 17.8319C20.8038 17.8994 20.7675 18.0269 20.8096 18.1471C20.8221 18.1828 20.8404 18.2161 20.8551 18.2511C20.8736 18.2951 20.8719 18.3056 20.8353 18.3292C20.7059 18.4127 20.5861 18.5101 20.467 18.6085C20.4322 18.6374 20.4226 18.6377 20.3901 18.6061C20.3611 18.5762 20.3303 18.5483 20.2981 18.5226C20.2066 18.4528 20.0814 18.452 19.9953 18.5286C19.9354 18.582 19.8786 18.6401 19.8358 18.7115C19.771 18.8196 19.786 18.9478 19.8743 19.0356C19.9099 19.0711 19.9136 19.0738 19.9717 19.1156C19.8825 19.2095 19.7083 19.4633 19.6573 19.5631" fill="#414141"/>
<path d="M18.4453 20.1589C18.0868 20.1585 17.7283 20.1581 17.3698 20.1577C16.7998 20.1577 16.2301 20.1577 15.6602 20.1577C15.5287 20.1577 15.5265 20.1533 15.5448 20.0175C15.5576 19.9185 15.5599 19.8197 15.5071 19.7297C15.4503 19.6326 15.37 19.5703 15.2622 19.5529C15.2095 19.5439 15.1565 19.5382 15.1032 19.5359C15.0392 19.534 15.0275 19.5172 15.0251 19.4491C15.0174 19.229 15.0004 19.0103 14.9602 18.7934C14.9443 18.7076 14.9486 18.7004 15.0303 18.6766C15.0964 18.6574 15.1607 18.6337 15.2196 18.5963C15.3661 18.5034 15.4091 18.3447 15.374 18.1817C15.3579 18.1073 15.3336 18.0348 15.3099 17.9626C15.2484 17.7754 15.0856 17.678 14.901 17.7144C14.8378 17.7269 14.7772 17.7481 14.7163 17.7684C14.6662 17.7853 14.6599 17.7836 14.6366 17.7324C14.5397 17.517 14.4253 17.3108 14.2947 17.116C14.2702 17.0797 14.2715 17.0683 14.3089 17.0388C14.3601 16.9978 14.4016 16.9459 14.4492 16.9009C14.5635 16.7929 14.5615 16.5656 14.4931 16.457C14.4286 16.3548 14.3469 16.2679 14.258 16.1916C14.1462 16.0952 13.9501 16.0918 13.8258 16.2095C13.783 16.2501 13.7344 16.2839 13.6966 16.3301C13.6739 16.3579 13.6529 16.3584 13.626 16.3345C13.5627 16.2779 13.4987 16.2219 13.4329 16.1684C13.3299 16.0845 13.2214 16.009 13.1115 15.9353C13.0162 15.8714 13.0206 15.8857 13.0691 15.78C13.0893 15.7379 13.1071 15.6945 13.1222 15.6501C13.1777 15.4772 13.1274 15.2878 12.9507 15.1933C12.8744 15.1527 12.7978 15.111 12.7156 15.0874C12.6002 15.0544 12.4877 15.0604 12.3863 15.1398C12.3452 15.1724 12.3122 15.215 12.2901 15.2641C12.2628 15.3225 12.2389 15.3826 12.2127 15.4416C12.193 15.4861 12.1886 15.4889 12.1439 15.4741C11.9726 15.4174 11.7974 15.3787 11.6202 15.349C11.5781 15.3423 11.5359 15.3355 11.4937 15.3292C11.4326 15.3198 11.4279 15.3148 11.4268 15.2473C11.426 15.1911 11.4261 15.1349 11.4268 15.0785C11.4282 14.9225 11.3499 14.822 11.2231 14.7568C11.1867 14.7374 11.1468 14.7263 11.1061 14.7242C11.0103 14.7208 10.9144 14.7143 10.8188 14.731C10.6365 14.7631 10.5233 14.8972 10.5176 15.0914C10.5162 15.1408 10.5176 15.1902 10.517 15.2398C10.5161 15.3157 10.5132 15.318 10.4439 15.3296C10.231 15.3651 10.0188 15.4039 9.81193 15.4698C9.7626 15.4854 9.75672 15.4821 9.73415 15.4308C9.71268 15.3818 9.69173 15.3326 9.67009 15.2837C9.58485 15.0892 9.38721 15.0263 9.2051 15.0963C9.13685 15.1223 9.07029 15.1529 9.00571 15.1878C8.89982 15.2454 8.82994 15.3346 8.80708 15.4615C8.79532 15.5281 8.80126 15.5969 8.82424 15.6602C8.84414 15.7173 8.87049 15.7712 8.89534 15.826C8.9164 15.8724 8.91401 15.883 8.87375 15.9088C8.70375 16.0174 8.54491 16.1425 8.38991 16.2733C8.37001 16.2901 8.35145 16.3091 8.33225 16.3264C8.29909 16.3557 8.28891 16.3557 8.25534 16.3252C8.21822 16.2914 8.17999 16.2588 8.14526 16.2224C8.01435 16.0853 7.76923 16.0861 7.64216 16.2318C7.60469 16.2747 7.56897 16.3196 7.53051 16.3615C7.48402 16.412 7.48094 16.4103 7.43323 16.364C7.39273 16.3246 7.29726 16.2362 7.29045 16.2309C7.22686 16.1561 7.22948 16.1556 7.29388 16.079C7.84143 15.4279 8.53554 14.9322 9.31244 14.6376C9.70401 14.4891 10.107 14.3923 10.5211 14.3547C10.774 14.3326 11.0282 14.33 11.2814 14.3471C11.6245 14.3688 11.9644 14.4281 12.2957 14.5241C12.5675 14.6024 12.8319 14.7069 13.0855 14.8364C13.2587 14.9225 13.4268 15.0197 13.5887 15.1276C13.8156 15.2789 14.0303 15.4495 14.2308 15.6376C14.4226 15.8191 14.6027 16.0139 14.7698 16.2207C14.7925 16.2503 14.8137 16.2813 14.8334 16.3133C14.9898 16.4993 15.1153 16.7083 15.2326 16.922C15.4684 17.3503 15.6447 17.8117 15.7562 18.2924C15.7952 18.4606 15.8211 18.6313 15.85 18.8016C15.875 18.95 15.9784 19.0008 16.1053 18.9289C16.2645 18.8389 16.3655 18.6245 16.3424 18.4348C16.3373 18.3937 16.3104 18.347 16.3523 18.3084C16.3856 18.2886 16.4222 18.2903 16.4585 18.2901C16.6506 18.2896 16.8426 18.2875 17.0346 18.2911C17.1138 18.2926 17.1669 18.2613 17.2093 18.1922C17.3681 17.933 17.4891 17.6502 17.5682 17.3532C17.6306 17.1214 17.6754 16.8862 17.6906 16.6451C17.6925 16.6204 17.6921 16.5955 17.6895 16.5709C17.6861 16.5416 17.693 16.5175 17.7187 16.5021C17.7604 16.5013 17.8516 16.4958 17.8557 16.4954C18.0151 16.4855 18.0151 16.4856 18.0154 16.6544C18.0154 16.7827 18.0147 16.9108 18.0158 17.0388C18.0168 17.156 18.0465 17.1921 18.1553 17.221C18.4157 17.2909 18.6794 17.3135 18.9479 17.2988C19.0721 17.292 19.1934 17.2685 19.3166 17.2582C19.3421 17.2552 19.367 17.2484 19.3906 17.238C19.4654 17.2078 19.4875 17.1773 19.4885 17.0916C19.4905 16.9321 19.488 16.7725 19.4899 16.6128C19.4903 16.5781 19.4836 16.5398 19.5129 16.5116C19.5613 16.4724 19.6075 16.5023 19.6507 16.5214C19.7575 16.5687 19.8378 16.6526 19.9117 16.7434C20.0484 16.9115 20.1497 17.1036 20.246 17.2991C20.2544 17.3147 20.258 17.3328 20.2562 17.3508C20.2529 17.3946 20.2228 17.4163 20.1921 17.4373C19.9403 17.6087 19.7144 17.8121 19.5064 18.0392C19.2681 18.2995 19.0703 18.5905 18.9028 18.905C18.7082 19.2702 18.5761 19.6594 18.498 20.0698C18.4912 20.1043 18.4978 20.1531 18.4453 20.1589Z" fill="#45423D"/>
<path d="M18.4452 20.1588C18.4612 20.0821 18.4768 20.0053 18.4938 19.9293C18.6332 19.3038 18.9008 18.7456 19.2872 18.2498C19.5438 17.9185 19.8482 17.6317 20.1892 17.3997C20.2087 17.3862 20.2303 17.3755 20.2426 17.3525C20.2578 17.3255 21.4209 16.537 22.7215 16.7903C22.7989 16.8496 22.8081 16.9635 22.766 17.0667C22.7249 17.1675 22.6482 17.1991 22.5256 17.1961C22.4124 17.1931 22.2994 17.1867 22.1867 17.1932C21.9971 17.2033 21.8087 17.2285 21.6228 17.2687C21.1135 17.3812 20.6498 17.5992 20.2336 17.9281C19.7475 18.3124 19.3806 18.7984 19.1288 19.3805C19.0266 19.6182 18.9497 19.8672 18.8994 20.1227C18.8963 20.1379 18.8545 20.3849 18.8416 20.494C18.8301 20.5952 18.784 20.6659 18.6912 20.6993C18.5549 20.7483 18.4093 20.6436 18.4064 20.4919C18.4047 20.4154 18.4204 20.3404 18.4313 20.2651C18.4357 20.2351 18.4403 20.1637 18.4452 20.1588Z" fill="#A19D98"/>
<path d="M17.3354 19.6329C17.1029 19.6329 16.8704 19.6335 16.638 19.6325C16.529 19.6319 16.4501 19.5759 16.4051 19.4733C16.3601 19.3704 16.374 19.2707 16.4393 19.1815C16.4911 19.1109 16.5652 19.0838 16.6474 19.0811C16.7029 19.0793 16.7584 19.0804 16.8141 19.0804C17.2066 19.0807 17.5991 19.0809 17.9916 19.0812C18.066 19.0812 18.1353 19.0947 18.1943 19.148C18.2757 19.2215 18.3088 19.3408 18.2749 19.4471C18.2584 19.5009 18.2261 19.5479 18.1827 19.5814C18.1393 19.6148 18.087 19.633 18.0333 19.6333C17.8007 19.6345 17.568 19.6329 17.3354 19.6329Z" fill="#FC4F4F"/>
<path d="M9.97795 13.8047C9.9925 13.8169 10.0091 13.8173 10.0262 13.8137C10.1718 13.7837 10.3188 13.7664 10.4661 13.7504C10.479 13.7489 10.4726 13.7491 10.5089 13.7454C11.026 13.7049 11.7153 13.7348 12.2574 13.8856C12.3769 13.9204 12.4973 13.9463 12.617 13.9809C12.6292 13.9817 13.2148 14.2073 13.4423 14.3361C13.4626 14.3514 13.4726 14.3596 13.4871 14.3713C13.4964 14.4818 13.4639 14.5649 13.4026 14.6403C13.3173 14.7454 13.2046 14.8208 13.0785 14.8685C12.9163 14.7942 12.7548 14.7181 12.5873 14.6572C12.2909 14.5494 11.9855 14.4711 11.6752 14.4235C11.4047 14.383 11.1317 14.3657 10.8587 14.3716C10.5364 14.3773 10.2157 14.4179 9.90139 14.4928C8.92591 14.7236 8.04137 15.2649 7.3678 16.0432C7.34628 16.0681 7.32428 16.0927 7.3027 16.1175C7.25784 16.1693 7.23823 16.203 7.20518 16.2441C7.15026 16.3128 7.09679 16.3828 7.04332 16.4526C6.91835 16.6157 6.69871 16.6244 6.56193 16.4535C6.4693 16.3377 6.48501 16.1632 6.56041 16.0533C6.64257 15.9356 6.73042 15.8224 6.82357 15.7142C6.91881 15.602 7.01156 15.4873 7.11593 15.3842C7.26226 15.2399 7.40795 15.0944 7.56702 14.9657C8.11038 14.5261 8.70587 14.1908 9.36222 13.9791C9.53566 13.923 9.71177 13.8766 9.88993 13.8403C9.92134 13.8341 9.95427 13.8317 9.97795 13.8047Z" fill="#ED5050"/>
<path d="M15.3189 15.9781C15.478 16.1762 15.6073 16.3957 15.7322 16.6181C15.8792 16.8796 16.0014 17.1539 16.1049 17.4377C16.1998 17.6981 16.2819 17.9627 16.3365 18.236C16.3429 18.2668 16.3506 18.2967 16.3578 18.3277C16.3721 18.4116 16.3884 18.4947 16.371 18.581C16.3354 18.7584 16.2515 18.8972 16.0914 18.9744C15.9572 19.0393 15.8408 18.9715 15.8188 18.8176C15.7612 18.4125 15.667 18.0171 15.5234 17.6356C15.3535 17.1842 15.131 16.7647 14.8478 16.3806C14.8349 16.363 14.8229 16.3443 14.8105 16.3262C14.8412 16.219 14.9046 16.1324 14.9657 16.0433C15 15.9933 15.053 16.0015 15.0973 15.9868C15.1688 15.9631 15.2439 15.9438 15.3189 15.9781Z" fill="#ED5050"/>
<path d="M15.2814 15.9688C14.9309 15.9389 14.8207 16.3032 14.8094 16.3261C14.6581 16.1318 14.4983 15.9457 14.3244 15.7732C13.9712 15.4214 13.5702 15.1268 13.1347 14.8991C13.1155 14.8892 13.097 14.8788 13.0781 14.8683C13.0944 14.848 13.2387 14.8182 13.359 14.6455C13.4607 14.4993 13.4847 14.4002 13.4867 14.3711C13.6015 14.4165 13.7017 14.4903 13.8058 14.5559C13.9858 14.6682 14.1587 14.7925 14.3237 14.928C14.4727 15.0514 14.6174 15.1799 14.7551 15.318C14.8495 15.4125 14.9379 15.5126 15.0272 15.6117C15.131 15.727 15.2356 15.843 15.3177 15.978" fill="#ED5050"/>
<path d="M24.3751 17.6368C24.3375 17.5706 24.2802 17.522 24.2341 17.4628C23.9865 17.1445 23.809 16.7861 23.6838 16.3975C23.6695 16.3528 23.6565 16.3077 23.642 16.2631C23.6359 16.2441 23.6314 16.2225 23.6058 16.2232C23.2901 15.9383 22.9089 15.7795 22.5356 15.6055C21.9718 15.3431 21.3829 15.1626 20.7873 15.0036C20.3201 14.8789 19.8469 14.7865 19.3722 14.701C19.329 14.6932 19.2828 14.6894 19.253 14.6469C19.2451 14.6161 19.2451 14.5847 19.2451 14.5533C19.2445 14.1813 19.2446 13.8093 19.2457 13.4374C19.2457 13.3969 19.2339 13.3503 19.2754 13.3203C19.3689 13.3446 19.4656 13.3446 19.5606 13.3585C19.7399 13.3847 19.9205 13.4042 20.0997 13.4327C20.3317 13.4693 20.5644 13.5018 20.7946 13.5505C20.9534 13.5842 21.1132 13.6126 21.2718 13.6483C21.4577 13.6901 21.6435 13.7324 21.827 13.7815C22.133 13.8634 22.4388 13.9465 22.737 14.0571C22.8556 14.101 22.9733 14.1485 23.0935 14.1875C23.216 14.2272 23.312 14.3064 23.4033 14.3957C23.602 14.5898 23.8002 14.7844 23.9919 14.9861C24.1201 15.1211 24.2487 15.2552 24.371 15.3964C24.4239 15.4576 24.4825 15.5135 24.5377 15.5731C24.6329 15.676 24.7214 15.7855 24.819 15.8863C24.8973 15.9674 24.9437 16.0693 24.9494 16.1861C24.9575 16.3502 24.9525 16.513 24.913 16.6744C24.8401 16.9713 24.7059 17.2334 24.5238 17.4703C24.4782 17.5292 24.431 17.5873 24.3751 17.6368Z" fill="#ED5050"/>
<path d="M16.3949 14.1697L15.9537 13.8473C15.9464 13.8427 15.9394 13.8375 15.9329 13.8316C15.9062 13.8046 15.8901 13.817 15.8734 13.8451C15.8484 13.8868 15.8203 13.9266 15.7933 13.9671C15.7295 14.0626 15.6671 14.1591 15.6015 14.2532C15.5528 14.3231 15.4911 14.3446 15.4228 14.3222C15.3208 14.2884 15.2747 14.1726 15.3254 14.0724C15.3411 14.0408 15.3622 14.012 15.3817 13.9826C15.6061 13.6437 15.8307 13.3049 16.0554 12.9661C16.0694 12.9436 16.085 12.9222 16.1019 12.9019C16.1605 12.8356 16.2493 12.8251 16.3166 12.8749C16.3492 12.899 16.3723 12.935 16.3815 12.9759C16.3906 13.0169 16.385 13.0599 16.3658 13.0967C16.3459 13.1362 16.3203 13.1726 16.2959 13.2094C16.2262 13.3143 16.1558 13.4187 16.0859 13.5233C16.0579 13.565 16.0572 13.5659 16.0973 13.5952C16.2475 13.7057 16.3983 13.8158 16.549 13.9256L16.3949 14.1697Z" fill="#45423E"/>
<path d="M18.213 13.2364C18.2336 13.2518 18.2322 13.2751 18.2322 13.2972C18.2328 13.6914 18.2328 14.0856 18.2322 14.4797C18.2328 14.4932 18.2306 14.5066 18.2258 14.5191C18.1994 14.5528 18.1617 14.5515 18.1261 14.5516C17.9941 14.5523 17.8622 14.5448 17.7303 14.5422C17.3618 14.5338 16.9934 14.5388 16.6245 14.5396C16.5989 14.5396 16.5732 14.5411 16.5494 14.5531C16.5354 14.5598 16.5226 14.5696 16.5246 14.5881C16.5266 14.6067 16.5414 14.6124 16.5563 14.6165C16.5666 14.6193 16.5771 14.6206 16.5879 14.6204C16.7687 14.6163 16.9496 14.6241 17.1308 14.6122C17.3048 14.6007 17.4796 14.6042 17.6544 14.6152C17.8051 14.6248 17.9564 14.6287 18.1074 14.6345C18.1459 14.6359 18.1842 14.6332 18.2185 14.6572C18.2356 14.7476 18.2624 14.837 18.2441 14.931C18.2437 14.9396 18.2414 14.948 18.2373 14.9554C18.2091 14.9908 18.1653 14.9916 18.1287 15.0076C18.0594 15.038 18.0249 15.0876 18.027 15.1681C18.037 15.5363 18.0095 15.904 18.0143 16.2721C18.0148 16.3147 18.0156 16.3572 18.0202 16.3998C18.0298 16.4918 18.0057 16.522 17.9176 16.5314C17.8944 16.5338 17.8708 16.5345 17.8472 16.5352C17.8062 16.5358 17.7652 16.5361 17.7244 16.5326C17.6046 16.5524 17.4833 16.5537 17.3625 16.5625C17.1387 16.5783 16.9744 16.4823 16.8577 16.2789C16.6958 15.9966 16.5325 15.7154 16.3844 15.4246C16.3179 15.2942 16.2562 15.1613 16.1862 15.0326C16.0737 14.826 16.0726 14.6239 16.2039 14.4261C16.2613 14.3399 16.3031 14.2428 16.3716 14.1646C16.4095 14.0706 16.471 13.9923 16.5263 13.9097C16.6531 13.7127 16.7869 13.5211 16.931 13.3378C16.975 13.2818 17.0362 13.2473 17.0926 13.2071C17.1674 13.1858 17.4388 13.1801 17.5075 13.1778C17.5856 13.175 17.664 13.1767 17.7421 13.1778C17.7794 13.178 18.1412 13.1987 18.213 13.2364Z" fill="#ED5050"/>
<path d="M22.8101 17.0271C22.7859 17.0129 22.7709 16.9933 22.7725 16.9622C22.7775 16.8677 22.7195 16.8211 22.6484 16.7864C22.5539 16.75 21.8332 16.6786 21.1169 16.9408C20.865 17.0268 20.622 17.134 20.3934 17.2759C20.3514 17.302 20.3047 17.3199 20.2652 17.3512C20.2597 17.3556 20.2491 17.3527 20.2409 17.3532C20.1847 17.2687 20.1475 17.1729 20.0969 17.085C20.0186 16.9489 19.9356 16.8167 19.8296 16.7021C19.7464 16.6119 19.652 16.5428 19.5328 16.5175C19.5001 16.5202 19.4951 16.4949 19.4911 16.4703C19.4875 16.4414 19.4863 16.412 19.4874 16.3829C19.4874 16.1787 19.484 15.9744 19.4882 15.7703C19.4922 15.5771 19.4712 15.3849 19.4738 15.1918C19.4748 15.1184 19.4417 15.0686 19.3777 15.04C19.3521 15.0286 19.3274 15.0156 19.3034 15.0009C19.2851 14.9895 19.2653 14.9779 19.2733 14.9491L19.2757 14.803C19.2969 14.772 19.3258 14.7764 19.3566 14.7813C19.7112 14.8375 20.0634 14.9069 20.4131 14.9895C20.8335 15.0897 21.2515 15.1997 21.6608 15.343C21.9889 15.4578 22.3136 15.5825 22.628 15.7353C22.7771 15.8077 22.9292 15.8743 23.0654 15.9724C23.1166 16.0093 23.1578 16.0585 23.1968 16.1095C23.2896 16.231 23.2661 16.3722 23.2575 16.5104C23.2549 16.5536 23.2353 16.5938 23.2319 16.6372C23.1516 16.7658 23.083 16.902 23.0272 17.0442C23.0158 17.0738 23.0005 17.0848 22.9685 17.0734C22.9169 17.0549 22.8632 17.0423 22.8101 17.0271Z" fill="#ED5050"/>
<path d="M23.2334 16.6373C23.2156 16.6013 23.2185 16.5622 23.225 16.5251C23.2391 16.4469 23.2341 16.3685 23.2341 16.29C23.2341 16.213 23.1937 16.1534 23.1496 16.0986C23.094 16.0301 23.0259 15.9741 22.9495 15.934C22.5916 15.7424 22.2212 15.5829 21.842 15.4444C21.5681 15.3442 21.2917 15.2528 21.0108 15.1771C20.6557 15.0814 20.2994 14.9931 19.9388 14.9206C19.7316 14.879 19.5228 14.8478 19.3155 14.8072C19.3029 14.8048 19.2899 14.8043 19.2773 14.8029C19.2773 14.7534 19.2773 14.704 19.2773 14.6548C19.4047 14.6675 19.5301 14.6942 19.6558 14.718C19.8193 14.749 19.9826 14.7819 20.1455 14.8167C20.3165 14.8537 20.4877 14.8895 20.6568 14.9369C20.7863 14.973 20.9174 15.0038 21.0474 15.0394C21.3652 15.1267 21.6791 15.2269 21.9893 15.3401C22.2412 15.432 22.4849 15.546 22.7299 15.6562C22.9629 15.7614 23.189 15.8833 23.4065 16.0207C23.4703 16.0609 23.5289 16.1102 23.5891 16.1565C23.6104 16.1729 23.6296 16.1926 23.6065 16.2231C23.5253 16.299 23.4414 16.3717 23.3693 16.4582C23.3213 16.5158 23.279 16.5775 23.2334 16.6373Z" fill="#ED5050"/>
<path d="M18.214 14.5198L18.2144 14.6678C17.7878 14.6309 16.9924 14.6309 16.5909 14.6547C16.5604 14.6532 16.53 14.6499 16.4997 14.6448C16.4773 14.6394 16.4428 14.609 16.4434 14.59C16.4445 14.555 16.4636 14.5381 16.4883 14.5252C16.5193 14.5088 16.5605 14.5058 16.5953 14.5058C16.9795 14.5058 17.3637 14.4997 17.7476 14.5094C17.9029 14.5134 18.0586 14.5158 18.214 14.5198Z" fill="#ED5050"/>
<path d="M24.7982 16.3153C24.8003 16.4605 24.7726 16.5941 24.7331 16.7254C24.6634 16.9577 24.55 17.1648 24.4054 17.354C24.3761 17.3924 24.3746 17.3926 24.3441 17.3546C24.2035 17.1806 24.0912 16.9878 23.9948 16.7837C23.9225 16.6305 23.8632 16.4717 23.8101 16.3102C23.7937 16.2601 23.7956 16.2513 23.8432 16.2255C24.0095 16.1356 24.1838 16.0717 24.3697 16.0438C24.4544 16.031 24.5398 16.0313 24.6245 16.0203C24.633 16.0196 24.6415 16.0193 24.6501 16.0197C24.7307 16.0214 24.7433 16.0321 24.7736 16.1095C24.8004 16.1783 24.7998 16.2498 24.7982 16.3153Z" fill="#FEFEFE"/>
<path d="M19.2689 13.3531C19.2689 13.7823 19.2737 14.7236 19.2837 14.9876C19.2599 15.0195 19.2289 15.0078 19.2012 14.9995C18.9006 14.9071 18.5983 14.9208 18.2949 14.9792C18.2693 14.9841 18.2444 14.9908 18.2228 14.9687L18.2211 14.9708C18.2071 14.9506 18.2211 12.8535 18.2194 12.7193C18.2186 12.6616 18.2278 12.6093 18.255 12.5587C18.2884 12.4964 18.3175 12.4317 18.3487 12.368C18.3529 12.3634 18.3587 12.3604 18.3649 12.3599C18.7146 12.5172 19.0035 12.6998 19.2669 12.9836C19.2631 13.0861 19.2669 13.2234 19.2689 13.3531Z" fill="#414141"/>
<path d="M18.3658 12.3357H18.3605L18.3555 12.3347C18.3807 12.2711 18.3821 12.2046 18.3819 12.137C18.3811 11.935 18.3842 11.7329 18.3824 11.531C18.3817 11.4574 18.4028 11.3977 18.4465 11.3401C18.6617 11.0559 18.8958 10.788 19.1466 10.5382C19.306 10.3794 19.4753 10.2319 19.6612 10.1074C19.6966 10.1163 19.6814 10.1406 19.6735 10.1592C19.5595 10.4241 19.5755 10.7019 19.6114 10.9776C19.6271 11.0991 19.6592 11.2243 19.755 11.3136C19.7619 11.3192 19.7664 11.3274 19.7679 11.3364C19.7693 11.3454 19.7675 11.3546 19.7629 11.3623C19.5463 11.4684 19.3762 11.6331 19.2326 11.8308C19.2114 11.86 19.1957 11.8908 19.201 11.9293C19.1915 12.17 19.1935 12.4104 19.2015 12.8064C19.2011 12.8107 19.2006 12.8149 19.1999 12.8192C19.1678 12.842 19.1469 12.8161 19.1271 12.7985C19.0415 12.7218 18.9585 12.6422 18.8662 12.5738C18.7654 12.4989 18.6621 12.4291 18.5503 12.3734C18.4915 12.3443 18.4316 12.3246 18.3658 12.3357Z" fill="#A19D98"/>
<path d="M19.8002 10.0776C19.8434 10.1004 19.8656 10.1384 19.8764 10.1872C19.9044 10.3113 19.9227 10.4375 19.9316 10.5647C19.9465 10.7823 19.9167 10.9928 19.865 11.2016C19.8543 11.2451 19.8419 11.2879 19.8145 11.3238C19.7873 11.3287 19.7789 11.3079 19.7679 11.288C19.6406 11.0577 19.6175 10.8063 19.6333 10.5474C19.6353 10.5119 19.6409 10.4764 19.6431 10.4406C19.6502 10.3031 19.7064 10.1735 19.8002 10.0776Z" fill="#A19D98"/>
<path d="M19.4077 15.0136C19.4741 15.0444 19.5067 15.0895 19.5093 15.1732C19.5228 15.5951 19.5192 16.017 19.5202 16.4389C19.5202 16.4658 19.5229 16.5783 19.5226 16.6097C19.5217 16.7847 19.5188 16.9597 19.5211 17.1347C19.522 17.1963 19.4978 17.2315 19.4472 17.2536C19.0252 17.3753 18.4773 17.3692 18.0931 17.2402C18.0065 17.2125 17.9835 17.1785 17.9829 17.0842C17.9819 16.9608 17.9829 16.8374 17.9829 16.7138C17.9829 16.6624 17.9837 16.6107 17.9829 16.559C17.9819 16.5074 17.9956 15.7073 17.9956 15.6826C17.9956 15.4941 17.997 15.3055 17.9951 15.1169C17.9945 15.0576 18.0153 15.022 18.0678 14.9972C18.678 14.7941 18.9983 14.8532 19.4077 15.0136Z" fill="#A19D98"/>
<path d="M18.1096 16.1249V15.2148C18.1096 15.1991 18.1091 15.1833 18.1096 15.1676C18.111 15.105 18.1161 15.0966 18.1731 15.0747C18.3877 14.988 19.015 14.906 19.3499 15.1387C19.4027 15.168 19.4113 15.1979 19.4134 15.2687C19.4221 15.4281 19.4071 16.6122 19.4077 17.0682C19.4077 17.0774 19.4077 17.0862 19.4077 17.0952C19.406 17.1603 19.4019 17.1635 19.3392 17.1771C18.9486 17.2626 18.5602 17.2513 18.1736 17.1501C18.1162 17.1351 18.1132 17.1336 18.1132 17.0684C18.1126 16.8593 18.1126 16.6504 18.1132 16.4414C18.1132 16.3357 18.1132 16.2301 18.1132 16.1245L18.1096 16.1249Z" fill="#45423D"/>
<path d="M18.3522 12.3484C18.3596 12.2907 18.393 12.2847 18.4575 12.3006C18.5349 12.3249 18.609 12.3597 18.6779 12.4043C18.8313 12.5008 18.9781 12.6069 19.107 12.7385C19.1357 12.7679 19.1691 12.7925 19.2004 12.8191C19.2048 12.8384 19.2147 12.856 19.2288 12.8692C19.2696 12.9077 19.275 12.9523 19.2668 13.0086C19.1992 12.9984 19.1612 12.9559 19.1183 12.9061C19.0019 12.7711 18.866 12.6617 18.7218 12.5623C18.633 12.5009 18.497 12.434 18.3984 12.3925C18.3646 12.3783 18.3481 12.3792 18.3522 12.3484Z" fill="#DCF9FB"/>
<path d="M19.8019 10.0775C19.8247 10.0906 19.8393 10.0967 19.7807 10.1513C19.7065 10.2214 19.6574 10.3981 19.6623 10.6878C19.6671 10.8799 19.6696 11.0509 19.8162 11.3238C19.8038 11.344 19.7876 11.3589 19.7638 11.362C19.5154 11.1048 19.5395 10.3136 19.6621 10.1071C19.7129 10.0517 19.7426 10.0454 19.8019 10.0775Z" fill="#DCF9FB"/>
<path d="M31.6803 15.9998C31.6803 7.34 24.6601 0.319824 16.0003 0.319824C7.34049 0.319824 0.320312 7.34 0.320312 15.9998C0.320312 24.6596 7.34049 31.6798 16.0003 31.6798C24.6601 31.6798 31.6803 24.6596 31.6803 15.9998Z" stroke="#CED3E6" stroke-width="1.1"/>
</g>
<defs>
<clipPath id="clip0_467_67077">
<rect width="32" height="32" fill="white"/>
</clipPath>
</defs>
</svg>
